<mxfile host="app.diagrams.net" modified="2024-04-22T03:38:16.484Z" agent="Mozilla/5.0 (Macintosh; Intel Mac OS X 10_15_7) AppleWebKit/537.36 (KHTML, like Gecko) Chrome/124.0.0.0 Safari/537.36" etag="WN56NmF6frxjrAuj1k4t" version="24.2.7" type="github">
  <diagram name="user" id="Iwq5KBSP_4whoUQeNNOh">
    <mxGraphModel dx="3033" dy="1257" grid="1" gridSize="10" guides="1" tooltips="1" connect="1" arrows="1" fold="1" page="1" pageScale="1" pageWidth="827" pageHeight="1169" math="0" shadow="0">
      <root>
        <mxCell id="0" />
        <mxCell id="1" parent="0" />
        <mxCell id="ZlNRgsK83NWHivk_8-HD-5" style="edgeStyle=orthogonalEdgeStyle;rounded=0;orthogonalLoop=1;jettySize=auto;html=1;entryX=0;entryY=0.5;entryDx=0;entryDy=0;" edge="1" parent="1" source="ZlNRgsK83NWHivk_8-HD-3" target="ZlNRgsK83NWHivk_8-HD-4">
          <mxGeometry relative="1" as="geometry" />
        </mxCell>
        <mxCell id="ZlNRgsK83NWHivk_8-HD-3" value="" style="shape=actor;whiteSpace=wrap;html=1;fillColor=#f8cecc;strokeColor=#b85450;" vertex="1" parent="1">
          <mxGeometry x="-730" y="418.5" width="40" height="60" as="geometry" />
        </mxCell>
        <mxCell id="8PqoIUjrqFFSACYSVB_w-9" style="edgeStyle=orthogonalEdgeStyle;rounded=0;orthogonalLoop=1;jettySize=auto;html=1;" edge="1" parent="1">
          <mxGeometry relative="1" as="geometry">
            <mxPoint x="-440" y="453.49666666666644" as="sourcePoint" />
            <mxPoint x="-80" y="463.49666666666644" as="targetPoint" />
            <Array as="points">
              <mxPoint x="-80" y="454" />
            </Array>
          </mxGeometry>
        </mxCell>
        <mxCell id="8PqoIUjrqFFSACYSVB_w-49" style="edgeStyle=orthogonalEdgeStyle;rounded=0;orthogonalLoop=1;jettySize=auto;html=1;" edge="1" parent="1" source="ZlNRgsK83NWHivk_8-HD-4" target="8PqoIUjrqFFSACYSVB_w-27">
          <mxGeometry relative="1" as="geometry" />
        </mxCell>
        <mxCell id="8PqoIUjrqFFSACYSVB_w-50" style="edgeStyle=orthogonalEdgeStyle;rounded=0;orthogonalLoop=1;jettySize=auto;html=1;entryX=0;entryY=0.5;entryDx=0;entryDy=0;" edge="1" parent="1" source="ZlNRgsK83NWHivk_8-HD-4" target="8PqoIUjrqFFSACYSVB_w-35">
          <mxGeometry relative="1" as="geometry" />
        </mxCell>
        <mxCell id="ZlNRgsK83NWHivk_8-HD-4" value="Server Auth&lt;div&gt;ApiGateway&lt;/div&gt;" style="rounded=0;whiteSpace=wrap;html=1;fillColor=#d5e8d4;strokeColor=#82b366;" vertex="1" parent="1">
          <mxGeometry x="-560" y="181" width="120" height="535" as="geometry" />
        </mxCell>
        <mxCell id="ZlNRgsK83NWHivk_8-HD-6" value="Cliente" style="text;html=1;align=center;verticalAlign=middle;resizable=0;points=[];autosize=1;strokeColor=none;fillColor=none;" vertex="1" parent="1">
          <mxGeometry x="-740" y="478.5" width="60" height="30" as="geometry" />
        </mxCell>
        <mxCell id="8PqoIUjrqFFSACYSVB_w-40" style="edgeStyle=orthogonalEdgeStyle;rounded=0;orthogonalLoop=1;jettySize=auto;html=1;" edge="1" parent="1" source="8PqoIUjrqFFSACYSVB_w-1" target="8PqoIUjrqFFSACYSVB_w-13">
          <mxGeometry relative="1" as="geometry" />
        </mxCell>
        <mxCell id="8PqoIUjrqFFSACYSVB_w-1" value="Microservicio&lt;div&gt;de&lt;/div&gt;&lt;div&gt;Registrar&lt;/div&gt;" style="rounded=0;whiteSpace=wrap;html=1;fillColor=#e1d5e7;strokeColor=#9673a6;" vertex="1" parent="1">
          <mxGeometry x="-80" y="100" width="230" height="100" as="geometry" />
        </mxCell>
        <mxCell id="8PqoIUjrqFFSACYSVB_w-52" style="edgeStyle=orthogonalEdgeStyle;rounded=0;orthogonalLoop=1;jettySize=auto;html=1;" edge="1" parent="1" source="8PqoIUjrqFFSACYSVB_w-2" target="8PqoIUjrqFFSACYSVB_w-34">
          <mxGeometry relative="1" as="geometry" />
        </mxCell>
        <mxCell id="8PqoIUjrqFFSACYSVB_w-2" value="Microservicio&lt;div&gt;de&lt;/div&gt;&lt;div&gt;Login&lt;/div&gt;&lt;div&gt;&lt;br&gt;&lt;/div&gt;" style="rounded=0;whiteSpace=wrap;html=1;fillColor=#e1d5e7;strokeColor=#9673a6;" vertex="1" parent="1">
          <mxGeometry x="-80" y="250" width="230" height="100" as="geometry" />
        </mxCell>
        <mxCell id="8PqoIUjrqFFSACYSVB_w-41" style="edgeStyle=orthogonalEdgeStyle;rounded=0;orthogonalLoop=1;jettySize=auto;html=1;entryX=0.5;entryY=1;entryDx=0;entryDy=0;" edge="1" parent="1" source="8PqoIUjrqFFSACYSVB_w-3" target="8PqoIUjrqFFSACYSVB_w-13">
          <mxGeometry relative="1" as="geometry" />
        </mxCell>
        <mxCell id="8PqoIUjrqFFSACYSVB_w-53" style="edgeStyle=orthogonalEdgeStyle;rounded=0;orthogonalLoop=1;jettySize=auto;html=1;" edge="1" parent="1" source="8PqoIUjrqFFSACYSVB_w-3" target="8PqoIUjrqFFSACYSVB_w-34">
          <mxGeometry relative="1" as="geometry">
            <Array as="points">
              <mxPoint x="35" y="370" />
              <mxPoint x="500" y="370" />
              <mxPoint x="500" y="513" />
            </Array>
          </mxGeometry>
        </mxCell>
        <mxCell id="8PqoIUjrqFFSACYSVB_w-3" value="Microservicio&lt;div&gt;de&lt;/div&gt;&lt;div&gt;Forgot_Password&lt;/div&gt;&lt;div&gt;&lt;br&gt;&lt;/div&gt;" style="rounded=0;whiteSpace=wrap;html=1;fillColor=#e1d5e7;strokeColor=#9673a6;" vertex="1" parent="1">
          <mxGeometry x="-80" y="408.5" width="230" height="100" as="geometry" />
        </mxCell>
        <mxCell id="8PqoIUjrqFFSACYSVB_w-13" value="&lt;font style=&quot;font-size: 14px;&quot;&gt;Microservicio&lt;/font&gt;&lt;div style=&quot;font-size: 14px;&quot;&gt;&lt;font style=&quot;font-size: 14px;&quot;&gt;de&lt;/font&gt;&lt;/div&gt;&lt;div style=&quot;font-size: 14px;&quot;&gt;&lt;font style=&quot;font-size: 14px;&quot;&gt;Notificaciones&lt;/font&gt;&lt;/div&gt;" style="rounded=0;whiteSpace=wrap;html=1;fillColor=#fa6800;fontColor=#000000;strokeColor=#C73500;" vertex="1" parent="1">
          <mxGeometry x="225" y="409.5" width="230" height="98" as="geometry" />
        </mxCell>
        <mxCell id="8PqoIUjrqFFSACYSVB_w-54" style="edgeStyle=orthogonalEdgeStyle;rounded=0;orthogonalLoop=1;jettySize=auto;html=1;" edge="1" parent="1" source="8PqoIUjrqFFSACYSVB_w-27" target="8PqoIUjrqFFSACYSVB_w-34">
          <mxGeometry relative="1" as="geometry">
            <Array as="points">
              <mxPoint x="35" y="690" />
              <mxPoint x="664" y="690" />
            </Array>
          </mxGeometry>
        </mxCell>
        <mxCell id="8PqoIUjrqFFSACYSVB_w-27" value="Microservicio&lt;div&gt;Me(Mi informacion)&lt;/div&gt;&lt;div&gt;&lt;br&gt;&lt;/div&gt;" style="rounded=0;whiteSpace=wrap;html=1;fillColor=#e1d5e7;strokeColor=#9673a6;" vertex="1" parent="1">
          <mxGeometry x="-80" y="558.5" width="230" height="100" as="geometry" />
        </mxCell>
        <mxCell id="8PqoIUjrqFFSACYSVB_w-28" value="" style="image;sketch=0;aspect=fixed;html=1;points=[];align=center;fontSize=12;image=img/lib/mscae/Cache_Redis_Product.svg;" vertex="1" parent="1">
          <mxGeometry x="315" y="524" width="50" height="42" as="geometry" />
        </mxCell>
        <mxCell id="8PqoIUjrqFFSACYSVB_w-29" value="Redis" style="shape=cylinder3;whiteSpace=wrap;html=1;boundedLbl=1;backgroundOutline=1;size=15;fillColor=#e3c800;fontColor=#000000;strokeColor=#B09500;" vertex="1" parent="1">
          <mxGeometry x="310" y="568" width="60" height="80" as="geometry" />
        </mxCell>
        <mxCell id="8PqoIUjrqFFSACYSVB_w-30" style="edgeStyle=orthogonalEdgeStyle;rounded=0;orthogonalLoop=1;jettySize=auto;html=1;entryX=0;entryY=0.5;entryDx=0;entryDy=0;entryPerimeter=0;" edge="1" parent="1" source="8PqoIUjrqFFSACYSVB_w-27" target="8PqoIUjrqFFSACYSVB_w-29">
          <mxGeometry relative="1" as="geometry" />
        </mxCell>
        <mxCell id="8PqoIUjrqFFSACYSVB_w-34" value="" style="sketch=0;outlineConnect=0;fontColor=#232F3E;gradientColor=none;fillColor=#C925D1;strokeColor=none;dashed=0;verticalLabelPosition=bottom;verticalAlign=top;align=center;html=1;fontSize=12;fontStyle=0;aspect=fixed;pointerEvents=1;shape=mxgraph.aws4.rds_postgresql_instance;" vertex="1" parent="1">
          <mxGeometry x="625.13" y="474.5" width="78" height="78" as="geometry" />
        </mxCell>
        <mxCell id="8PqoIUjrqFFSACYSVB_w-51" style="edgeStyle=orthogonalEdgeStyle;rounded=0;orthogonalLoop=1;jettySize=auto;html=1;" edge="1" parent="1" source="8PqoIUjrqFFSACYSVB_w-35" target="8PqoIUjrqFFSACYSVB_w-34">
          <mxGeometry relative="1" as="geometry" />
        </mxCell>
        <mxCell id="8PqoIUjrqFFSACYSVB_w-35" value="&lt;div&gt;Microservicio&lt;/div&gt;&lt;div&gt;de&lt;/div&gt;&lt;div&gt;Modificaciones&lt;/div&gt;" style="rounded=0;whiteSpace=wrap;html=1;fillColor=#e1d5e7;strokeColor=#9673a6;" vertex="1" parent="1">
          <mxGeometry x="-80" y="716" width="230" height="100" as="geometry" />
        </mxCell>
        <mxCell id="8PqoIUjrqFFSACYSVB_w-37" value="" style="shape=image;verticalLabelPosition=bottom;labelBackgroundColor=default;verticalAlign=top;aspect=fixed;imageAspect=0;image=data:image/png,iVBORw0KGgoAAAANSUhEUgAAA0AAAAIaCAYAAAAJAS1nAAAAAXNSR0IArs4c6QAAIABJREFUeF7snQd4VEX3/09CeiWEJLRA6E06IkWQDlJDL2J9X3tHxfpasSsqdkRRBCnSq3Sld+kl9NBDCSlACJD8/9+T3102S8om7Ca72e88j49k771zZz5z7tz5zjkz1619+27pwkQCJEACJEACJEACJEACJEACLkDAjQLIBVqZVSQBEiABEiABEiABEiABElACFEA0BBIgARIgARIgARIgARIgAZchQAHkMk3NipIACZAACZAACZAACZAACVAA0QZIgARIgARIgARIgARIgARchgAFkMs0NStKAiRAAiRAAiRAAiRAAiRAAUQbIAESIAESIAESIAESIAEScBkCFEAu09SsKAmQAAmQAAmQAAmQAAmQAAUQbYAESIAESIAESIAESIAESMBlCFAAuUxTs6IkQAIkQAIkQAIkQAIkQAIUQLQBEiABEiABEiABEiABEiABlyFAAeQyTc2KkgAJkAAJkAAJkAAJkAAJUADRBkiABEiABEiABEiABEiABFyGAAWQyzQ1K0oCJEACJEACJEACJEACJEABRBsgARIgARIgARIgARIgARJwGQIUQC7T1KwoCZAACZAACZAACZAACZAABRBtgARIgARIgARIgARIgARIwGUIUAC5TFOzoiRAAiRAAiRAAiRAAiRAAhRAtAESIAESIAESIAESIAESIAGXIUAB5DJNzYqSAAmQAAmQAAmQAAmQAAlQANEGSIAESIAESIAESIAESIAEXIYABZDLNDUrSgIkQAIkQAIkQAIkQAIkQAFEGyABEiABEiABEiABEiABEnAZAhRALtPUrCgJkAAJkAAJkAAJkAAJkAAFEG2ABEiABEiABEiABEiABEjAZQhQALlMU7OiJEACJEACJEACJEACJEACFEC0ARIgARIgARIgARIgARIgAZchQAHkMk3NipIACZAACZAACZAACZAACVAA0QZIgARIgARIgARIgARIgARchgAFkMs0NStKAiRAAiRAAiRAAiRAAiRAAUQbIAESIAESIAESIAESIAEScBkCFEAu09SsKAmQAAmQAAmQAAmQAAmQAAUQbYAESIAESIAESIAESIAESMBlCFAAuUxTs6IkQAIkQAIkQAIkQAIkQAIUQLQBEiABEiABEiABEiABEiABlyFAAeQyTc2KkgAJkAAJkAAJkAAJkAAJUADRBkiABEiABEiABEiABEiABFyGAAWQyzQ1K0oCJEACJEACJEACJEACJEABRBsgARIgARIgARIgARIgARJwGQIUQC7T1KwoCZAACZAACZAACZAACZAABRBtgARIgARIgARIgARIgARIwGUIUAC5TFOzoiRAAiRAAiRAAiRAAiRAAhRAtAESIAESIAESIAESIAESIAGXIUAB5DJNzYqSAAmQAAmQAAmQAAmQAAlQANEGSIAESIAESIAESIAESIAEXIYABZDLNDUrSgIkQAIkQAIkQAIkQAIkQAFEGyABEiABEiABEiABEiABEnAZAhRALtPUrCgJkAAJkAAJkAAJkAAJkAAFEG2ABEiABEiABEiABEiABEjAZQhQALlMU7OiJEACJEACJEACJEACJEACFEC0ARIgARIgARIgARIgARIgAZchQAHkMk3NipIACZAACZAACZAACZAACVAA0QZIgARIgARIgARIgARIgARchgAFkMs0NStKAiRAAiRAAiRAAiRAAiRAAUQbIAESIAESIAESIAESIAEScBkCFEAu09SsKAmQAAmQAAmQAAmQAAmQAAUQbYAESIAESIAESIAESIAESMBlCFAAuUxTs6IkQAIkQAIkQAIkQAIkQAIUQLQBEiABEiABEiABEiABEiABlyFAAeQyTc2KkgAJkAAJkAAJkAAJkAAJuJwAOnhwF1udBEiABEjAyQi4ublLxYo1nKzULC4JkAAJkIAjEqAAcsRWYZlIgARIgAQyEXB3LyZRUdVJhQRIgARIgARumQAF0C0jZAYkQAIkQAL2JkABZG/Cjp3/oUO7JT093bELydKRgJMQ8PDwlPLlqzpJae1TTAog+3BlriRAAiRAAjYkQAFkQ5hOmNWhQ3skPT3NCUvOIpOA4xHw9vaVsmUrOl7BCrBEFEAFCJu3IgESIAESyB8BCqD8cSsqV1EAFZWWZD0cgQAFkAgFkCNYIstAAiRAAiSQIwEKINc2EAog125/1t62BCiAKIBsa1HMjQRIgARIwC4EKIDsgtVpMqUAcpqmYkGdgAAFEAWQE5gpi0gCJEACJEAB5No2QAHk2u3P2tuWAAUQBZBtLYq5kQAJkAAJ2IUABZBdsDpNphRATtNULKgTEKAAogByAjNlEUmABEiABCiAXNsGKIBcu/1Ze9sSoACiALKtRTE3EiABEiABuxCgALILVqfJtCgIIG9vb+V95cqVAuOOe16/fl2uXbtWYPfkjRyfAAUQBVC2Vurh4SE9e/aUtLQ0mT59up532223SfXq1SUmJka2b9+uv0VEREiPHj3Ey8tLVq1aJVu2bDHlWatWLWnXrp3s27dPli5dKqmpqXqsTp06Uq1aNZk9e7bUq1dPWrduLT///LOcP39ecE2nTp0kISFB/vrrLzlx4oTjP0ksIQmQAAnYmQAFkJ0BO3j2zi6AKlasKIsXL1bKlStXtgvtrl27yldffaVjlC5dusgTTzwhL7zwgly4cEEaNWpkl3syU+ckQAFEAZSt5VapUkUWLFiQqbMaN26cNGvWTDZs2CADBw6U3377Te68885MeQwfPlzGjBkjM2fOVMFkJMz4QNgcPXpUpk6dKvXr15etW7eqAEKCiMJ1oaGhmfJr3ry5nD592jmfMJaaBEiABGxEgALIRiCdNBtXFEBz5szRydB77rnHqlaDABo5cqQcOXJE2rZtK08++aQMHTqUAsgqeq51EgUQBdAtCaADBw7o9VOmTJFTp05J+/btpW/fvvL4449rx3P16lX5+OOPpVevXlK7dm3ZtWuXdO/e3SSAcO2lS5fk2LFj8tNPP8mnn36q+b333ns6Q1SuXDl58MEHXeupZG1JgARIIAsCFECubRbWCqDCit7IqnUCAgKkT58+gv8vX75cZsyYkWlSFX9kFynSqlUrnRRNTk6Wd999V8cYiDJxd3eXu+++W6NRzp49K5MmTTKF1JUpU0YnZePi4uTvv//OUgD5+fnp9RUqVNBIlkWLFrm2Yblo7SmAKIBuSQDt2LFDfH19NUxuyZIl8sYbb2iHZHh40HFt3rxZihcvLnXr1lWxg/A34zjc0rfffrtej84IYXJIly9fFnibPvvsM8btumjnxGqTAAlkJkAB5NoWYa0AKujoDYgJhJxZJrz3V6xYIRAcSFiHU6xYsUwCKLtIEYibH3/8MVOWCIdv2bKlrF69WkPvjZSeni4vvviiiitLj4/l3w899JC8/vrrmfJdu3at1R4m17bAolV7CiAKoDwJIEO4GCFwTZs2le+++06Cg4NNHVx0dLSMHj3a1EGhczJSSkqKhsUZ+WA257777jMdf/TRR9VdjRkspPj4eLnjjju042QiARIgAVcmQAHkyq0vYksBZMvoDXh4MLlpmUaMGKHriDEGWLdunU6CGmIIER5412cXKfLMM8/I119/LTVr1tS8x48fLwcPHpTJkyfLww8/LE2aNFEPD0Lx4UE6dOiQRqDkJoDWrFkj4eHhsnfvXo1cwTohhMzBO8XkWgQogCiAsrX4yMhI7WCQjBkeeHMgdgwBBFc0vDfohN555x0VLhA3pUqVkhYtWsj+/ft13Y+RjPMNAYROxwhxM45hx5bXXntNhgwZopfhODsn1+qYWFsSIIGbCVAAubZV2FIA2TJ6I7tWQVRIVFSUrvXt3bu3Tmb+8ccfejoEUG6RIq+88oqKHYSzYe2xkRBOh/zatGmjYfKVKlXSSVJsrJSbADLuibwQko+xhrGhk2tbl+vVngKIAihHq8fubRAm2MAAszAhISF6viGA4PbGOdikAIIHAgizKZip+fLLL/VcuK2xIBFueXSE8PJkJYCwTuj999+XnTt3CjxF2PwACTvEYeMEJhIgARJwZQIUQK7c+rfmAbJ39EZWLQOvT8mSJWXatGny0ksv6U6xu3fvNgkg81C2rCJFshJA8PbMmjVL3Nzc1LOEcYm/v7/VAghjGKwZMt+FDuuLsKETk2sRoACiAMrR4jGb8vzzz5s6m/Xr1+ssjiGA0JmhUzMShA9mZpKSkuS///2vuriNff/RWY0aNUo++eQTkwD6559/BDG5SFjwiK2wIbiQcP78+fPl6aefdq2nkrUlARIggSwIUAC5tllY6wEq6OiN7FoFu8hi4tOIBEGImrGuBwJk7NixOUaKDBs2TCdMEQrfuHFjvc0vv/wid911l26M0KBBA3nsscd0m2trPUBGpAnWHn/zzTcq0LAJE/Jkci0CFEAUQLlaPDoMuJhjY2NN3/ExvwguaB8fH/X6IBzOMqGDwUYJ8ATltpYHCyTxrQB4nOj1ybVpeAIJkIALEaAAcqHGzqKq1gogXFqQ0RvZtYqxxgfHseFRUFCQaYITAgg7wuYUKWJsaY3rMb7AdwIRdTJ48GAda2zatElFECJPrBVAK1eu1I2VkB8+wYGNGrZt26Y71TK5FgEKIAog17J41pYESIAEnJQABZCTNpyNip0XAVSQ0RvZVQ8TmtjlDRsZIMETBO8UokKMELScIkVw3rJly0wbKiHUHhEm8CxhHRASolCwgyzOtWYNEL4rZJQH1+MbQ4hCMf+Au42ai9k4OAEKIAogBzdRFo8ESIAESAAEKIBc2w7yIoAy7KXgojdyahl4WeClwScysks5RYpgy2uE2ptHhUBIIdQenqW8phIlSuhGTdg5Dp/cYHJNAhRAFECuafmsNQmQAAk4GQEKICdrMBsXN68CyMa3zzY77KZmrPU1TkKIWYcOHQqqCLwPCeSZAAUQBVCejYYXkAAJkAAJFDwBCqCCZ+5Id3RUAWR4eMxZYXe2rL4N5Eg8WRbXJkABRAHk2k8Aa08CJEACTkKAAshJGspOxXRUAWSn6jJbErArAQogCiC7GhgzJwESIAESsA0BCiDbcHTWXCiAnLXlWG5HJEABRAHkiHbJMpEACZAACVgQoABybZOgAHLt9mftbUuAAogCyLYWxdxIgARIgATsQoACyC5YnSZTCiCnaSoW1AkIUABRADmBmbKIJEACJEACFECubQMUQK7d/qy9bQlQAFEA2daimBsJkAAJkIBdCFAA2QWr02RKAeQ0TcWCOgEBCiAKICcwUxaRBEiABEiAAsi1bYACyLXbn7W3LQEKIAog21oUcyMBEiABErALATc3d6lYsYZd8mamjk+AAsjx24gldB4CFEAuKICSkpOcx0JZUhIgARIgASXg5uYmAf4BpOGiBCiAXLThWW27EKAAogCyi2ExUxIgARIgAdsSoACyLU9ny+3Qod2Snp7ubMVmeUnAIQl4eHhK+fJVHbJsBVUot/btu7lUj0IPUEGZFu9DAiRAArYjQAFkO5bOmFNycrKki0sNV5yxmVhmJyHg7u4u/n7+TlJa+xSTAsg+XJkrCZAACZCADQlQANkQphNmRQHkhI3GIjssgWLFiomfr5/Dlq8gCkYBVBCUeQ8SIAESIIFbIkABdEv4nP5iCiCnb0JWwIEIUABxDZADmSOLQgIkQAIkkB0BCiDXtg0KINduf9betgQogCiAbGtRzI0ESIAESMAuBCiA7ILVaTKlAHKapmJBnYAABRAFkBOYKYtIAiRAAiRAAeTaNkAB5Nrtz9rblgAFEAWQbS0qH7l5enrqVVevXs3H1byEBEiABAqWAHYPEkmXtLSC3ZGLAqhg29nR7kYB5GgtwvI4MwEKIAogu9rvHU1ul8ce+68cP35C3vjfOzfdq1SpCPnow/f09wcefMSqskRHd5ca1avJnr0xsmcP/ttr1XU8iQRIgARulUD16lWkRfMmcunSJZk4acatZpen6ymA8oSryJ1MAVTkmpQVKkQCFEAUQHY1Pwigxx9/WE7HxcnLL79xSwKoRo3q8srLL8iMmbNV+NSoUU2ie3bXv2fMmG3XejBzEiABEgCBGtWrSHMKIBpDIRBwNAHE6I1CMIIieMvC8qhTAFEAZfs4wTiaNbtD0tLSZPXqtXpeVFQFKVeurBw/dlwOHT4ilStVlNJlSsuRI7Fy9OgxPefOO5vr/1etWiMlSoRI7dq15MKFBNm2bbv+7uvro+f4+PjIju075a23Xtffc/MA/TpmlHz08efq8YEYiu7ZTWbMnKOiKLdri2CfwSqRAAmISEREmHh7e8v5c/GSfPGiMgkpHiyBQYHqpTl79rwE+PtL6dIR4u3tJUePHpeExCQTO1zv7uYuJ0+dlsjIMuLv7y979uzT4+gDS5cKl5ASxSXhQqIcO35CqlWtrAIoOfmi/LVgqUSWKyNJScly7PhJ7SuNFBoaImElQ0Xc3OTQoVi5cuWKHoIXR69JviiJiUlSqWIFSbmSIkePnsi1PekByhVRkT6hIAVQSEhx+eyzjyQ9LU0ee/wZuXbtWia2eY3ewDsbk5aM3ijSJprnyhWmR50CiAIoW4MtU6a0fPB+RtiaITBeHjZUatasITEx++SDDz+V9959UyIjy8nGjZvlm29/EC8vLxn14zd6zVNPPy9t27SW3r17ysWLF+XJp56XgAB/7VR9vL31nOtpaVJM4+lzFkCG4IEAQkIYHLw/+NsQQgyFy3PfwwtIwOkJ3N25nYqb48dPyoKFy7Q+/fv11L5m5849cvzEKenYoXWmep6PvyAzZszT34bc0088PT3k9OkzUqpUuA70xv4+WcLCQqVrl47i7u5munbHzj2SmJCoAghiJ2PmMiNBBE2dNlvXBTVt2lhq1ayW6Z4oy7r1m3XiZ/Cg3irO8AKGeIP4mj9/Sa5tQQGUK6IifUJBCiBfX1/55psvRNLT9V1++XJKJrZ5EUDG+9oyesOY0CzSjcbK5UigMD3qFEAUQNkapz0E0KOP/Ee9Sunp6RrGVrFSlEkM5eTFQQeKlFWoW0ZY3ByuBWJHSwIuSKBcuTIqcCA8xv4+Ub/s3b9/TyWBNTqXL1+WDu3vUiGUmpoqLZrfoaJm5qz5cu5cvAogL6+MjVjgkTl1Ok5Wrlwn9w7pr8IoISFRDh85KqVLRcjf/6yScmVLqwBCios7K4lJSVKlckX9e+7cRXI67owEBwXKHXc0Us9PUHCg1KtbWwXT2N8niZeXtwogI509d14O7D8kO3flvpaRAsgFDfz/qhweHi4HDx6UdMl94w1bRG/A1lq0aKZ3X7Filf7fFtEbyAfvbKzhxSQmozccx6bVOx1ZVguECaXr16/rvzExhMnt8+fj1fOdX4+6j4+3lC1TWnx8fSQu7oycOXPOFFJcGB51CiAKoAIVQB9/NFwiItCRH5J33/tQ3eGvvPKiliG7jtBY+5PdbBEFkON0oCwJCRQGAUOsLFu2UkqEhqjgiI+/INP/z8uDcB6EmgUHBwoEk4eHh/y7Zbv8++92kwA6cOCw/LN8tRbfz89XBg7opf/+fdyfmXaoNGYsDcGF/xsias3ajbJ7d4yGuWHQEFUhUnz9fPX/SDNmzpdLly6bBBDKe+hwrNXIKICsRlUkToTowX9h4eFan9mzZlklgGwxeenl6SUjRnys933woUfF39/PJtEb5mt58f7n5KVjmarRl65du1F27Y4RrPO6d0g/LeS8+Yu178yPR7127RpyR5OGmSo7d94iDVcuLI86BRAFUJ4E0P/+96qu+8kuBK5ESIip08wqBG7kV59JUFCQrFy1RkaPHqMP0+ifvstWAOUmfnLyDDlWt8LSkAAJ2ItA82a3S40aVeXEiVMSHBykg7WVq9ZJTMwBadu2pUmAXElNFU8PT/UAWQqgZX+vkkOHjmgRy5QpJZ07tVWv0q+/TchUbEMApaSkyB8TpukxI+QOg4Y9e/fLwAHRGuqGBMEDQZWVAPr1t4mZ1g3lxocCKDdCReM4RE/t225T8RMXFyc7d+zQ/1sbAmcPAfTIww/lO3oDQscIX0cL4b2OkHW+vx3PXiFG0MfB24MJm5o1q0mzpo0Ffef48VN0cievHvVt23ZJ3z4ZUTyxscckMSlZQkuEyPy/lpg8QDhW0B51CiAKoGyfwLCwMPn0k/f1+BtvvCPHjh+Xb7/5UgcXhgB6+63XdWMEbIDwvzfflfbt2siQIYP0mqwEENYUoXM+ceKkvPb6W9KwQX155pknshVA2PjAfJc3I5bYKDR3gHO8DpQlIoGCJhAYGCD9+vYwrcvJ8M5M0m/1PHB/Rn+0YsVa2bf/oNxzT1/x9vK6SQAtXbZCDh8+qudiXc49g/vov6dOna2bJkA0eXp6ScWoyJt2gTMXQBcvXpJ27VrptRMmThM3N3cVRFkJoF/G/JEnVBRAecLlVCdbensM0WNeicIUQPhcRX6jN7J7T5tvbORUjVWEC2v0pagivN9du7TXzax27Ngt6zf8qzXPq0cdk1OYpMI6MvSJ5qkwPeoUQBRAOT7KY375URU/PlKacuWKBAYE6PmGALr//iHSpnXGyx4hJ8WLB+v5SFkJoD69o6V79y56HDGfEFPG+VmFwKGDNH7PzRtUhPskVo0ESCAXAphhDAoK1LOOHDkqS5au0H8/cP9A3awAM5pIeJkjWXqAzAUQjg8e1EcQs444+PgLCVI8OEg2btyiIstyG2xzAXTq9BmJ7nm33gOzneHhYZoPkmUIHAWQbc0aIgLJ+L9tc7dfbghxM8oMT8+ZuLgsb7Z27dp8h8DlNXrDMgTuqy8/zVf0Rnbix1gHxE9Y2M+u8puz0Zdu3rxNGjasq9lMnDRdvdn58agbm8JgzSXWXpqnwvSoUwBRAOX4jPTo3lV69eqhIgUbF+yN2afrdgwBhJ2Whr/3tgofJGx3jYXD2ErWXABB7OBvDETeefsN3TkOCZ6gsLCSGmeanQAyXOfGN4DYYea3W+N1JFB0CRihGqjh7DkLdIEtUr16taVRw3r6b4gXbExQuXKUrv+BCDLW7yxZslyOxGZs5Y+EmdCuXTqYwtfQ/y1a/I8E+PupAIKnZ9LkjA+hGgLIWANk7EyHY5j1xEYJEeFhuvPcpcsppjVAFEC3bo+33XabhoshQTwgZScgbv1u9svBqAM8P9klawWQLaI3LAXQ+8PfvqXoDWMC06gbozfsZ0u3mnOtWtWl6R2NdPIHIsFYTwkveH486tWqVZY7W9whV69ek/F/TNF+GJ8kwN/VqlYqNI86BRAFUK7PCsRP6dKldNcOy28B3BgsBIqnh4ecj8+YZc0tQTi5uxeTxMTEHE+F6DESdo2h+MmNLI+TAAlYEsDEC9bhQLRAyOQlYZ0iXtaY/czLtdhZDtfiOlslhsDdIAmPSZu2bXV9zI4cRIOt2BdEPoaYM0SQZb2sDYFDWW81esNSAPXu1fOWozcoegrCim79HhAG993b3xSds2LlWtm376BmnB+POsZ7CFFG/5WSckUuXb6smx9MmjxTykeWKTSPOgUQBdCtPy3MgQRIgARIwO4EKIAyEEMoIGwsq3Uydm+EArgB6ocEr5C5wMuLALrV6A1LAQTbY/RGATS+g9yiY8c2uuW/sZ7S+Mhzfj3q2AmzZctmGiGEBO8PPOiVKpYvNI86BRAFkIM8biwGCZAACZBATgQogDLW98DzM2niRJcwFnOv0Lp16yQtPc3qehdm9AY2LEK4PBKjN6xuMqc48VY86vCm43rLD+vmVnF7eNQpgCiAcrM7HicBEiABEnAAAhRAGd4fpKIS9matWaHe1q4BsjZPnkcCrkyAAogCyJXtn3UnARIgAach4OoCyFXFj2GgeQmBcxqjZkFJoJAIUABRABWS6fG2JEACJEACeSFAAeSa3h8KoLw8JTyXBKwjQAFEAWSdpfAsEiABEiCBQiVAAUQBlC5528WwUA2WNycBByZAAUQB5MDmyaKRAAmQAAkYBFxdABnbXhvf+3E1y2AInKu1OOtrTwIUQBRA9rQv5k0CJEACJGAjAq4ugAYMHOgyu79lZTIUQDZ6kJgNCYjoR179fP1cmoVb+/bdXMqnnJSc5NINzsqTAAmQgDMSoACiAGIInDM+uSyzIxKgAKIHyBHtkmUiARIgARKwIEABRAFEAcRugQRsQ4ACiALINpbEXEiABEiABOxKgAKIAogCyK6PGDN3IQIUQBRALmTurCoJkAAJOC8BCiAKIAog531+WXLHIkABRAHkWBbJ0pAACZAACWRJgAKIAogCiJ0DCdiGAAUQBZBtLIm5kAAJkAAJ2JUABRAFEAWQXR8xZu5CBNzd3cXfz9+FanxzVbkLnEs3PytPAiRAAs5BgAKIAogCyDmeVZbS8QlQANED5PhWyhKSAAmQAAkIBRAFEAUQOwISsA0BhsBRANnGkpgLCZAACZCAXQlQAFEAUQDZ9RFj5i5EgAKIAsiFzJ1VJQESIAHnJUABRAFEAeS8zy9L7lgEKIAogBzLIlkaEiABEiCBLAlQAFEAUQCxcyAB2xCgAKIAso0lMRcSIAESIAG7EqAAogCiALLrI8bMXYgABRAFkAuZO6tKAiRAArYhADHi5iaSlpZumwytyIUCiAKIAsiKB4WnkIAVBCiAKICsMBOeQgIkQAIkYE6gRfMmUqZMKflzyqwCA0MBRAFEAVRgjxtvVMQJUABRABVxE2f1SIAESMD2BCiAbM80txwHDKQAspUA8vT0lKtXr+aG3G7HC/v+dqsYM84XgcLwqFMAUQBla6wwyNKlS8nJk6ckPT0jzMPX10cCAgLlzJkzpuuioipIUFCQHDx4UJKTL2bKr0b1ahIXd0bOx8ebfg8NLSEXky+Kh6eHVK9eXQ4fPiypV1IF8SQpKSlSo0Y1OX7sRKZrcDGMNapCefH185UdO3aZ8gsMCNBrr127KjVr1JDYo0fl7Nlzejwyspz+/+jRYzedgLPwAAAgAElEQVTVE2UuW7aM7Nmz11S/fD25vIgESMBhCHh7e4u7u5tcvpxiKhP6DvRdRv+Ec4oXD5LExKRM5+Gc1NSrgg/klSxZQi5cSDAdx4ANvyGPpKRkMQTQ1GlzpGRoCUm5ckXzM08oR3BQkPZ1Z85k9ElIyN/Hx1suXbosIcWDxcvLS07H3ehTs4NJDxAFkDUCCPb1zttvyG9jx8n+/QdvMqeI8HD5+OPh8r83383y3Wjvh7mw72/v+jH/vBMojAklCiAKoGwtFcLi669HyMeffC67d+/V83r27CY9uneV//z3calfv548/dRjKj4kPV0FyptvvSexsUelUaOG8sQTj4i7xsm7aSeLzhZp5FefqSiqXLmS/j1z1hwpHxkpVatVEV8fH80H15w5c1ZeGvaaSci8+87/JC09XfO8fv26fPjhp3Lg4CF55uknpHr1quLj66vnFnN3V4GE8JQSJUrobxi0PPPsC5KWlqZ5v/fum1KuXFmT8Pn66+9l879b8v7U8goSIAGHItCwQV2pW7e2jP19oml9TvPmTaRypSj5fdxkad26hVSqWEGuXbsmHh4ecujQEVn29yqtQ7++PSQ+/oL2DejW1q7bJLt3x0injm2kbNnSmh9EzYKFyySqQqRUqlRB+xN392L6O4TR9BnzNO+goEDp3aubiKTrOeizZs9eIPEXEqRcuTLSts2dcu58vESEh0lKyhX5Y8LUXDlSAFEAWSOAYNdffPGJ/Pzzb7Jly1YKoFyfLJ5Q2AQogAqnBdzat+9WcKtYC6eOme6alJx5ljK7It0QQCNk9+49NwmgD95/RzAraoiU8uUjVfyg8/3xx29k754YGfHFSAkPD5P3h78ts2fPk2nTZ6oAgvdl9M+/ysqVqzVfiJiGDevLsmX/yB8TJkvFilHy2qsvyWeff2ny9kBwoTOHQBr51ecSE7NPvhr5renaX8aMleXLV8rgwQOkY4d26rn68KPPxN/fTz784F0Z9dMvsnr1WnnowfukZcsW8t7wj+TgwUPy8rChUqVKZXn4kScdoHVYBBIggVshAO/OPYP7yD//rJYDBw9rVvcO6ScHDh6R1avXS0hIcbl06ZJcuZIqlStHSauWzeT3cX+qaIEACgwMkMVLlktsbIbXuHHj+lLntpoye84COXv2vPj4+MiVK1ekebPbpXr1KrJy1TqJiTkgJUqESHTPuzPdt1SpcDl1Kk7FUf9+0XLs2Ak9HwKoY4fWcv58vMydt0iuXr1mVZUpgCiArBFAMKYyZUrrJKIR5ob3cs0a1dX2MSForQcI79tatWro87Jv337TpGHx4sFSoUJ5OXbsuJw7d95kv7gv3r0lS5aUChUiZdu2HZKamqrjgvzc36oHgyfZjYA1HvWAAH/Bf/ByY6LHSPgNtubn5yfBwYESF3fWdNz4LT4+QSN/bsWj7uXlqZNMsPWSoaGSejVVLlxIzJUJPUD0AGVrJLkJoAcfvE9atWwh69ZtkImT/tRwEaQ6dWrLC0OfVcGTkJDxW58+veT48RMy/P2PVAAlJiXJG2+8Y7o3BFCDBvXkof88Zupgf/h+pGzYuElnsYyEkLzatWpKp04dpFgxdxn6wisqgHBPQ8BAiMFb9Otv4+Tvv5frpfBk7dm9V7797kf5/LMPxcPDU2bPnqvH0IlDED0/dJjO/jKRAAk4N4Ee3Turt3fO3IUCEdLl7va6WQE8NEgIEcLvEDt48c6bv1iFCgQQBohz5y02AYiO7qKhbUuXrsgEBddV+j+vknFg8KA+ErPvgGzceMObjEFAeFhJqVu3lt532vS5JgE0depsSbAIm8uJPAUQBZC1AujXMaPkhx9Hy9q16/WdOXToMzp5iJSYmKiTkLmFwGEysUP7tnoNbG/jxs3yzbc/yLCXhqooMryomCD9+JMReh7uu3XrdqlXr46+y4e9/Ibaf37u79y9UNEofW4e9YEDosXX11f7W/Rva9ZskD1792vlH3pwsOzbd1CqVq2ktjBp8kxJS7su0T27iJ8froF3XOS3sZOkWdPG+faooy8OCwsV/wB/8fL01ImmRYv/ybUBKIAogLI1kqwEUO/ePaVrl84aAofUt28v7SARw759+0754suvpUePrtIruockJGRW4Jg9QucJAQTPy5dffZtJACEE7umnh5p+++brL2Tb9u0yatQv0r5dGxkwoK8+YGfPnZPg4GC5dPGiSQDBg4MQNySIJHh8Xn3tTZ2JQvryi0/1niO//k5G/fiNvggs1ysh1O/EiZO5PjQ8gQRIwLEJINytVatmMm78FLmrVTPBbPWUqbO1/+japYNgHWJKymVJSEiS0qUjMgmgkydPq5fGSEPu6ScxMftl/YZ/bxJACIub/OdM0+8D+kfLocOxsn79Zg2za9Giid4TYW+BAf66nshcAP0y5o88gaQAogDKjwDCBCBCxz/6+HMVLS++8KyEhobmKIAgYJ5/7mmdyJw6bYb4eHtrxEdScrJUqVJJZ/MhpDp2bC+DBvaTJ558Vu0bAgj3eOfdD0zri/Jz/zw9GDzZbgRy86iHh5fUNdcQM21a36lCxOgTIYDg3Z45a75pfSQmlPx8fWTqtLnqSYcQwlpIiJj8etSNa3ft2qthy9YmCiAKoGxtBar+++++kh9+GC1r163X85588lFp2KC+SQAZF6MTHDyov4wbN0GOnzipYWWfj/hKRZFlggDaf+CgjBz5XSYBhE71mWdfzFIA/fzzD3L40GENW0OC+97Tw8NMAN24NjcB9Okn7+ug5IUXX7X2OeF5JEACTkQAQuH++wbIpk1bpVGjeipe8HJsUL+ONGhQR1/QmADBpgbwFpl7gE6cPCWrVmX0d0gIa0u+eEkWW8woZhWzbi6AHrh/oBw/ftI0E9mjR2fxKFaMAugW7Ii7wCVLXgXQhg2b5OfR38vixUtl3PiJSv/uuzvJgP59chRA//3PA9K4cUN57PFnsmwxhLQhaqNUqQjp0ztaJzQRog4BtGDhYpkwYbJeh0Fmfu5/C2bCS21MIDePOkLQSpeKkMjIsurtGfPrBC0BBBC84du239i06oH7B8mq1evUM2SebsWjjmurVKmonqS8JAogCqAc7QUdF2J8MXNUpnQpee21YXo+PEB33tlcd1CD+q8YVUHefPM17WCXLv1bfhr1rc4OYV3Ozp27pXbtmrrz26HDR9QDlGcBNPp72bM3RkaMGKnhag/cP0TOnz+fLwE0cEA/6dy5g/z11yLdgAGDkkaNG5rC5fLyAPFcEiABxySAzQ4qlC+nkx1jf5+ssef16tUWhHRMmjxD3N3cpU2bjBnLnAQQzsd1S5aukKNHj6s36fLly9KoYb2bvgNkLoAgwI4cOSbLV6yW8uXLSds2LTVMmB6g/NsLBVDeBdCBA4cEk36IvkAIGxLe12+99XqOAuh//3tVigcH3TRRCOEz/L03JSIiQsNFsY4Nu61iQhMbCUEAjR49RlauWqP3CgsLy9f9828lvNLWBLLzqGOjF4QXY11kUlLG2nL8Zi6AMHEUe/S4HsMum4MG9pa5cxfdtOslREx+PepZXWsNAwogCqAc7QQ7vvXq1UPjfxHDiTAybHsNAYRNCqpVq6q/4/jp03Hyxv/e0YVoOGfYS8/r4jcknDPm1991k4KvvvxMDsAD9PUND9BTTz4mVatWkWefu+EBgtt8+7YdunnBkCGDNAwO6Xpami7GDCtZUl548RWxvNbYYvPll9+Q03Fxes2XX3yi24HiJYD09FOP66YLKDfSuXPn6BGypsfgOSTgJASMTQnghcGubcYLuFd0F31hIyHcDV6ghYv+ltOnz0jfPt31t1Wrb3iAcB5CO6KiIk39BV7g2EABO00itM5I/fv1lMMIgdvwr9Svd5s0bFhXDyE+Pjb2uAQXD5Lp0+fqix47yzEELm/GRAGUdwG0fv1G+eXnH2TxkmUaoYFkjQfoP/+5X5rc3lgefezpTI103333SNs2d8lrr7+lIeM1a1aXl4e9kEkAIWx99Zq1eh0mIPJz/7xZBs+2J4HsPOrdu3WSoOBAGT9+it4ek0JY62gugNC3Yk2OkeABwjqhvTEZ64SMdCse9fzuIEcBRAGU63MD44ebGzvKILbXPCFMLrRECTl1+vRNx3AedmALDMTuH2d0EHArKeM7HKFy6tRpm323B+FymLmwXA90K+XktSRAAo5NAHHniE3P64cgsaEB1jmY73SUU00x+MO9bNW/cA0Q1wDlNQQOmyBgDSzWcnz73Q/6zb0nnnhUPZk5bYJQ57ba8sILz8qKFatk/PiJEhAYIFgX3KJFM2nXro0Me/l1DW977tmndHxg7gEyF0B4PvJzf8fuQVyvdFl51Lt17ahjPEwChYQES+dO7cTT0yNHAYRwOniJ5sxdoGswIyLCdAOa3ARQTh51CqD82yO3wc4/O15JAiRAAiRQQAQogCiA8iKAvv/+J1m3foNUrlRRXho2VDcyQML38/Cb4cXJznx79+opXbt2Nu0et+zv5TJnzjwZ/t7bGs6EhE9fYCIR0RXY/c189zkj3/zev4AeK97GCgJZedSxgUynjm11m38k7P5WvVrlHAUQ1gvBcxQcHKTXYGL8198m6mcF8utRx7XwqmOnz7wkeoDoAcqLvfBcEiABEiCBQiJAAUQBZK0AyspES4SEyOWUFF3DlpeEdTwply/rDnBGCgsrqfnkxbuZ3/vnpaw8t+AJwDOOndzyEuUD8YEP31+8dMnqiB5be9QpgCiACv5p4R1JgARIgATyTIACiALoVgSQpcEhdA2fjLBM8fHxusEQEwkUZQIUQBRARdm+WTcSIAESKDIEKIAogGwpgIrMg8GKkEA+CFAAUQDlw2x4CQmQAAmQQEEToACiAKIAKuinjvcrqgQogCiAiqpts14kQAIkUKQIUABRAFEAFalHmpUpRAIUQBRAhWh+vDUJkAAJkIC1BCiAKIAogKx9WngeCeRMgAKIAojPCAmQAAmQgBMQoACiAKIAcoIHlUV0CgIUQBRATmGoLCQJkAAJuDoBCiAKIAogV+8FWH9bEaAAogCylS0xHxIgARIgATsSoACiAKIAsuMDxqxdigAFEAWQSxk8K0sCJEACzkqAAogCiALIWZ9eltvRCFAAUQA5mk2yPCRAAiRAAlkQoACiAKIAYtdAArYhQAFEAWQbS2IuJEACJEACdiVAAUQBRAFk10eMmbsQAQogCiAXMndWlQRIgASclwAFEAUQBZDzPr8suWMRcHd3F38/f8cqVAGXxq19+27pBXzPQr1dUnJSod6fNycBEiABEsg7AQogCiAKoLw/N7yCBLIiQAFEDxCfDBIgARIgAScgQAFEAUQB5AQPKovoFAQYAkcB5BSGykKSAAmQgKsToACiAKIAcvVegPW3FQEKIAogW9kS8yEBEiABErAjAQogCiAKIDs+YMzapQhQAFEAuZTBs7IkQAIk4KwEKIAogCiAnPXpZbkdjQAFEAWQo9kky0MCJEACJJAFAQogCiAKIHYNJGAbAhRAFEC2sSQnzMXT01OuXr3qhCVnkUmABAqbAMSIm5tIWlrBbSJKAUQBRAFU2E8+719UCFAAUQAVFVvOUz0iwsPl44+Hy//efFeOHj2Wp2t5MgmQAAm0aN5EypQpJX9OmVVgMCiAKIAogArsceONijgBCiAKoCJu4llXjwLIJZudlSYBmxGgALIZSqszGjCQAogCyGpz4YlORKAwPOoUQBRAOT4iZcqUlpMnT0np0qUkLKykxMTsl8uXL2e6BueUioiQHTt3SWpqaqZjoaElJCoqSmJjY+XMmbOmY5a/lwgJEXTs8fEX9JyAAH8pHlxcjh0/rn/j4YiMLKdlMcLWIGKCiwdLTMy+m8qD80qWLCkVKkTKtm07tFweHh5Ss0Z1uXTpkiQnX6QHyIk6RxaVBKwl4O3tLe7ubnL5corpErzofH199LlHwjnFiwdJYmJSpvNwTmrqVcEH8kqWLCEXLiSYjiNkFr8hj6SkZDEE0NRpc6RkaAlJuXJF8zNPKEdwUJB4eHrImTPnTIeQv4+Pt1y6dFlCigeLl5eXnI47k2sV6QGiAKIAyvUx4QlOSKAwJpQogCiAcnxUfh0zSk6cOCkQOUjp6enyx4RJsmjRUv3722++ED8/P0lLS9NBw/Tps2TW7LkSFBQkH37wrvj5+cr169dVfOD3xYuXZfl7jerVJCIiQp597kXN943XX5EqVSrJa6+/pfdv3LihPPXkY/Lc8y+Ju5u7DB/+lt4X5UlLT5fvvx8lGzdu1mtR5q1bt0u9enX0+LCX35DwsJIydOgzAoNHSkxM1DIyBM4Je0oWmQRyINCwQV2pW7e2jP19oml9TvPmTaRypSj5fdxkad26hVSqWEGuXbum/dKhQ0dk2d+rNMd+fXvoJEy5cmV1fc/adZtk9+4Y6dSxjZQtW1rzg6hZsHCZRFWIlEqVKujkjLt7Mf0dwmj6jHmad1BQoPTu1Q29pp6DfnD27AUSfyFBypUrI23b3CnnzsdLRHiYpKRckT8mTM21XSmAKIAogHJ9THiCExKgACqcRnNr375bwa1iLZw6ZrprUnLmWcqcigQxcfHiRXnhhVdUcAwbNlTCwsPk0Uef0pd8nTq1ZdeuPfpyf3nYC1K2bBl55tkX5J7BA6Vtu9am80qWDFXPUXTPHln+3qzpHTJkyCB5+JEn1cPz8+jvVVD9888K+fW3cSp+atasIU8+9Zx8/tmH4uPjK198OVIOHjwsQ59/RmrXrimPPva0enpQZpTtnXc/MK3v+frrEeLu5iYfffy5HnvxhWclNDSUAsgB7JFFIAFbEoB3557BfeSff1bLgYOHNet7h/STAwePyOrV6yUkpLh6ga9cSZXKlaOkVctm8vu4P7VfgAAKDAyQxUuWS2xsxtrAxo3rS53basrsOQvk7Nnz4uPjI1euXJHmzW6X6tWryMpV6yQm5oCUKBEi0T3vznTfUqXC5dSpOBVH/ftFy7FjJ/R8CKCOHVrL+fPxMnfeIrl69ZpVCCiAKICsFUCYtMTkIaI3EGGxc9fum2wsu+gN49ry5SPVg4lrMckJT2X1alVl9569+rxYJkxkxsWdkfPx8VbZM09yfALWeNQRsYP/4OXGWNBI+A0ec4wdg4MDJS7urOm48Vt8fIKkpKTckkfdy8tTJ5kwdiwZGiqpV1PlwoXEXOHSA0QPUI5GAjExd95f8uef0/S8O5rcLo8//rB88MEnErNvv/4WGBAgDRrWl4YN6km9enXlwYcelbp168jQ55+WAwcPyfjxE+XgwUN6bna/I/Tk++9GyujRYzQs5OmnH5et27ZLVIUK6vUZ+dXncujQYfniy69lzC8/ypIly2Tc+ImaJzrlUT9+I998+4N6gVDmBQsXy4QJk/U4jByCavHipaZr7r67kwzo34cCKNcugieQgPMR6NG9sw7Y5sxdKBAhXe5ur5sVwEODhMkV/A6xg5nHefMXq1CBAII4mjtvsanS0dFdNLRt6dIVmUDgukr/51UyDgwe1Edi9h2QjRu3ZBoEwANdt24tve+06XNNAmjq1NmSYBE2lxNtCiAKIGsFEN6DCCEvV7ZsRqREWpr8MWGyvjuRsovewDFcezouTsLDwvRcXIuoj06d2pvMc/bseTJt+kz9u1GjhvLEE4/oJCNsFBsLIbqCyfkJ5OZRHzggWnx9fU1RQGvWbJA9ezPGhg89OFj27TsoVatWUhucNHmmpKVdl+ieXTQ6CB51eNp/GztJmjVtnG+POvrisLBQ8Q/wFy9PT51oWrT4n1zhUwBRAOVoJOgIx44dL0uXZRgTDP37776SH34YLcdPnJBXXn5RDTkhIUHS00WKFw9WAYQEsTRwYD+dcUVn+uGHn2pMfXa/j/zqMzl8OFbc3N10TdEvY8bKy8OGyosvvSqfffqh3nP/gQP675FffyebN98YZEAUQahNmTJdO28IqZWr1mg5wsLC5NNP3jcJJPxWMaqCvPXW6xRAuXYRPIEEnI8Awt1atWom48ZPkbtaNdN+acrU2SpAunbpIFiDmJJyWRISkqR06YhMAujkydPqpTHSkHv66drH9Rv+vUkAISxu8p8Zg0CkAf2j5dDhWFm/frOG2bVo0UTvibC3wAB/XU9kLoB+GfNHnuBSAFEA5UUAwd4+H/Glvlfffvt18fbylpeGvaY2l130Bo7hHZqQkCgvvPiKeHp6yNcjR2i46Pff/yTrN2yU1159SUPWEe2B33/88RvZuydGRnwxUsLDw+T94W+LuUDKk5HzZIcikJtHPTy8pJw9e07FTJvWd6oQMfpECCB4t2fOmm9aH4kJJT9fH5k6ba560jF+xKQ3REx+PerGtbt27dWwZWsTBRAFUK4CyNxzUrNmdQ11gyh58YXnVNw89vgzqu4ffPA+adWyhUkAGRlXq1ZVhr30vA4iPvl0hOl+lr/Ds1S7Vi1dMLxk8TL5c8o0Gf3Td+r5qVKlsvz34Sd0lgFiZ+rUGTJ7zjzNC27Wb77+wiR60HmPGvWLrF6zVo9jAPLLzz/IYniNxk3Q3+gBsraL4Hkk4HwEIBTuv2+AbNq0VRo1qqfiBS/HBvXrSIMGdfQFjdAMbGoAb5G5B+jEyVOyatV6U6UR1pZ88ZIstphRzCpm3VwAPXD/QDl+/KRpJrJHj87iUawYBdAtmBN3gUvWzYKsSXgP4h2IdyFS584dZED/vpnez1lFbxgCaNasuSYPz/D33tJ3/ZNPPa95tWzZQv7z0P3ywIOPqJB6YeizKngwEYrUp08vOX78hAx//yNrispzHJxAbh51hKCVLhUhkZFl1dsz5teMcRYEELzh27bvMtXwgfsHyarV69QzZJ5uxaOOa6tUqaiepLwkCiAKoBztBZ0o4irfenu4DhjeevNVCQgI0PU2H7z/jm4kMPSFl6Vy5Ury/HNPCXZKggfotttqSeqVVA2TCwwMlI8+fE+OHImVefP/yvJ3CCOjI0WBnnn2Rd2o4I3XX1bxgx3kjJkrdMbYkQ5rfJISk+TFF5/TRctPPvmc7sRkKYCQ35dffKo7P3373Q96/yeeeFRnhbkJQl66C55LAs5DAJsdVChfTidAxv4+WWPP69WrLQjpmDR5hm6m0qZNxoxlTgII5+O6JUtXyNGjx7XfwHrGRg3r3fQdIHMBBAF25MgxWb5itZQvX07atmmpHnB6gPJvQxRAeRNAo3/+VVauXK3AW7W6Ux584F59P2NH1ZyiNyzfoe+8/YbmgXEA0u23N5Inn3hUBVDPnt2kV3QP9RiZp3379mvUBZPzE8jOo46NXhBejHWRSUkZa8vxm7kAwsRR7NGM3Xyx1GHQwN4yd+6im3a9hIjJr0c9q2utoU4BRAGUqwBC+Bq2nEbCJgOfffalChvE/T715KMa84u0adO/0rBhfe1go3t2l+jo7uoZwnG44j/55HNdI5TV74cOH9E8fv75B0lKTJTnnh+mf991V0vttBGCh1A8JCzofP31YbqJgVGmH34cbQqJQ+eNv9euvTGLW7lSRXlp2FDx8fbWa7A2Cb8Zu8xZ87DwHBIgAechYGxKAC8Mdm0zXsC9orvoCxsJ4W7wAi1c9LecPn1G+vbprr+tWn2j78B5CO2Iioo09XV4gWMDBXwIFaF1Rurfr6eGG8HjVL/ebdKwYV09BM91bOxxCS4eJNOnz9UXPXaWYwhc3uyJAihvAsj8PWgugDAhmVP0huU7NCcBhM2JEKr++YivZPv2nXlrUJ7tFASy86h379ZJgoIDZfz4KVoPTAphraO5AELfijU5RoIHCOuE9sZkrBMy0q141PO7gxwFEAVQjg+gMRO0cdNmVfaI9TRPeDBKlYrQ343v8xjHERuMeGC4xS9evGS6LLvf89oTYD2Sr49PnnacgXi6nJJy07eM8npvnk8CJOC8BBB3jth0yz4rtxoh3BaTOeY7HeV0DbxPuJfx/aHc8s/tONcAcQ1QXkLgshNAOUVvwAbzIoBgkz+N+lYjNrBud+fO3bor68Xki2JMbOZm1zzu+ASy8qh369pR/P39dBIoJCRYOndqp2vGchJACKfDWHLO3AW6BjMiIkw3oMlNAOXkUacAyr/9cBvsHNhlFU6Wf9S8kgRIgARIIL8EKIAogPIigLBpwbr1G9TcsG7noQfv0wiNnKI3DAFkfq2lB8j4Lh9C4JCioiroOl9sbYyEyI8xv/4uy5evzK+p8zoHI5CVRx0byHTq2Fa3+UfC7m/Vq1XOUQBhvRA8R8HBQXoNvOO//jZRPyuQX486roVXHTt95iXRA0QPUI72QgGUl8eJ55IACZCA/QhQAFEAWSuAcrPCnKI3crs2u+PwBmDNL74FhIEtk2sQgGccO7nlpc0hPhDBc/HSJRXM1iRbe9QpgCiAcrQ7fETt3LnzuvaHiQRIgARIoPAIUABRANlKABWeFfPOJOAYBCiAKIAcwxJZChIgARIggRwJUABRAFEAsZMgAdsQoACiALKNJTEXEiABEiABuxKgAKIAogCy6yPGzF2IAAUQBZALmTurSgIkQALOS4ACiAKIAsh5n1+W3LEIUABRADmWRbI0JEACJEACWRKgAKIAogBi50ACtiFAAUQBZBtLYi4kQAIkQAJ2JUABRAFEAWTXR4yZuxABCiAKIBcyd1aVBEiABJyXAAUQBRAFkPM+vyy5YxGgAKIAciyLZGlIgARIgAQYApcFgQEDKYAogNg5kIBtCFAAUQDZxpKYCwmQAAmQgF0J0ANEAUQBZNdHjJm7EAEKIAogFzJ3VpUESIAEnJcABRAFEAWQ8z6/LLljEaAAogByLItkaUiABEiABBgCxxC4mwgkJycLBRA7BxKwDQEKIAog21gScyEBEiABErArAXqA6AGiALLrI8bMXYiAu7u7+Pv5u1CNb66qW/v23dJdiUBScpIrVZd1JQESIIEiQYACiAKIAqhIPMqshAMQoOPNhGEAACAASURBVACiB8gBzJBFIAESIAESyI0ABRAFEAVQbk8Jj5OAdQQYAkcBZJ2l8CwSIAESIIFCJUABRAFEAVSojyBvXoQIUABRABUhc2ZVSIAESKDoEqAAogCiACq6zzdrVrAEKIAogArW4ng3EiABEiCBfBGgAKIAogDK16PDi0jgJgIUQBRAfCxIgARIgAScgAAFEAUQBZATPKgsolMQoACiALK5oXp4eMj169clPd2lNtezOUdmSAIkQALmBCiAKIAogNgnkIBtCFAAUQDZxpLMcvl1zCgZNeoXWb1mrc3zZoYFTyAysoz4+PjIvn0HTTevGFVefP18ZdeuvZkKVL58OQkPL6m/Xb16VU6djJMzZ89KWtoNMRxSPFgqV6koJ0+eluPHT95UoXp1a4ubu5ts2bJDj9WuXUPOxJ2VuDNnBR1WgwZ15NixE3LqVFyma+vWqSVHjhyVhMSst3mHMK9UqYKEh5XUfM7Hx0tMzEG5cuVKpnuYZ2rcb8eO3ZKSckXM62ecl5iYJDExB8So165dMXLp0iVTNl5eXlK3bi3ZvHmrNKhfV+uWVdq8eZukpaXpoRIhxaVCVKT8++9206lBQYFSrVpl2bp1p7JFcnd3k4YN6+n9UQ4kPz9fqVC+nESUCpczZ87JkcNHJfniRVM+RjnxAyYpLlxIkNjY46Y8cbxChUjZsjWDP5Jx771790tISHFTG2fHILu88XtYWKhUrFhB/P38JCkpWQ4ePCzn4y/chARblNasUVXCwkrKtWvXtP0PHDiskyuwkdjYYxJ/ISHTdfXq1VYbuHAhMVNbXb92XX83v495W2Z1HBlDcJQqFa483YsV0zxOnjyVyZ5hn76+Phk2n3pVjp84KWfPnte/GzWsl217nzsXL+npaXL48NEs7SGrHymAKIAogKx+XHgiCeRIgAKIAsjmjwgFkM2RFlqGGEz37xctGzZslp1mYufeIf3F09NDxo2fIqmpqabydWh/l5QpU0rOn7+gg0J/fz89tmTpCh2wIlWvXkVaNG8ily+nyISJ0zLVrWTJEtKje2cdYP762wQ9ds89fWX3rhjZ/O828fHxlsGD+uiAeMLE6aZBO867/74BsnLVOh0kWybk27lTO/HwKCYZA890CQ0NUZG1ddvOTPcwv9a438xZf8m5c+cF9StbtrQkJCSaToPIwH2Nep09d15mzfrLdDw4OEj69O4mY3+fLHd3zigDBvf4PTn5oqkOs+cs1HohRYSHSdeuHWTK1NkmYXNniztUAK1avV4gRJDAunOntjL5z5maV43qVaR58yaSmnpVzp0/LwH+/hIYGCBr120yiVXzcvr5+oifn59cvXpN5sxZoIICx5s1vd3EH+K3X9/uEh+fIHPmLrSaQVZ5V61aSVre2VT5Xbp0WRlcunw5Ey8D3MAB0Sq8T8edEU9PTykREiJz5y1UUffA/YNk7doNsuf/OBjX4PfVa9arIDRsEXUKDgrUPOLjL8iMmfO1/XM7DsHcr28PtTmIyytXUgV2BLZ/TpllajfYp6Sna33AGtfh/rCJ7t06ZdveELdt2typbQwhaE2iAKIAslYAMRLDmieK5zgKAfRtbm6SaXLJ3mWjAKIAytHGypQprTOeJUuW1Fnhbdt2mAa8EeHhElw8WGJi9mXKIysBVK5sWXEv5i6xsdbPdtrb+B09fwym0CkYM/sor5eXJ+aldaCMwVhiYrKkpKSYqgLBggGaMZDGAeSDwTEGfRAlOI7BYPHiQTqox+AXKTS0hJ4Hj4iR2rZpqYPsceP/NP0Gj1D7dndJ6tWrOqg291JgUAnPkLkAQB5RUZEy/68l6vXJGGA3VhEwc9Z8FSSm+7VtKZHlyoibm3uOAgieEniBFi9Zbro2JwF0z+A+Wk/cDwNZy2QusnITQJb1M85HvZo3u13bDINfDIKRzAWQ0S6GsJo1+y+Tt8CyTBjMw2u0bfsuPTRwQC9tv9Onz8i8+Yv1N3CsXLmitg88Kxhw794dI2vWbjRlV6dOTbm9cQOZO2+RXmspcGALQ+7pK/sPHJIVK9ZmOg6R27dPD33mp8+Ypx6qrNrYnIG5eLLMG0IQQgG2kFMqXSpC7r67nQqNrMSBtQLIvK0qV4qSu+5qLv/8s1oOHDx8Uz0sj3fr2lFFMsqAMiN5e3tL3z7dJCn5osnGLW0HAhRC9Lexk9RbhZRde/eK7qITAX8tWGpVd0QBRAFkrQDiRKRVjxRPchACmBTFWAP9bUElCiAKoBxtDZ3o1q3bpV69OjqAHvbyG3L92jUZPvwtnTnGb2np6fL996Nk48bNmpd5x4twmQ/ef1cHbjgXg+tXXv2fht0wZU0Ag6Xevbrq7HcGs1SZOm2OskMnAQ8EzsHDiwHR+fPxOquNhIH+nj37ZdPmrfo3uA8a2FumTZ+jYUGY0b52/boUDw7CpLWGUG3atFXq1q2tM9XI7/DhWFm6bKVeD1GBUCiEXRmpa5f2+k8IF4SU/THhhhcnu8ExBu9xcWdl6bIVOsDGgBzCDXks+zvjXhBE9907QMOMILZz8gCtW79Z7mjSUAeOJ06cMpU1Kw8QwvUw044BPDwAWSVbCaDGjevLyROnpXz5surdQtvlVwD16NFZB9Bz5y5SWxg8qLds375bw/UMNn37dJcLCYmyePE/6vmpVLFCJrGawdVN7r9vYJYCx2DRv19PFb8QVoZAGvv7ROkV3VUQwjdlKjweGUI5LwII55vnDQF0PS1NZsyYl+PjX7p0hHrL5sxZqKFvlik/Agh5PPjAIBXssOms6mEc37Z9p3qZ1qzZILv3ZJ7gueOORlK7VnX59beJKggtbad8ZFlp3/6uTN677ARQrZrVpEmTRgLW5mGi2cGhAKIAKigBFBgQIM8995S8N/wjvqpJwO4EKIDsjjjLG7i1b9/NpVbrJyVnvUYiKzoQM5i1fufdD+To0YwQps8/+1B8fHzliy9Havz+0Oefkdq1a8qjjz2tM8XmAujTT97XWdO33h6uM7lfffmpnPn/A5q333m/cFrbCe7as8fd6umZPWeBemv69+uh4UcLFi5TAYQB6r9btqsoCQkJFpyPcxEapAJo734VNUhZCSCEpWGW5eLFSxpmhXArDKw3bd4iVapUEoRaYfY6MNBfevfqZvLcID8MhuEtgOcFwguDW+PeOQ2O4QUKDw+ViZNmaPmb3N5ANm3epv8f+/skHfzhd4gaeC9aNL8jRwE0cdJ0ade2lYqLPyZM1YFodh4g3KNGjaoagpZdyosAiogIl4OHjpiyQmgfvFFGvVA2iE4IPgi0/AqgBvXr6NohtAVET6OGdVVUIfwQHhR4c4w6Y30WBFPa9TQNU7NM8DRg8Dxt+lwLD4+nVKxYXtt8w4Z/ZfuO3abjcXFnJDw8TFAfcy8jhENODAwPELw/lnkbYhR9AWzUnKNlmSHWAwL8Zd/+g4L1UYYXBuflRwBVr1ZFWrRooiIP68csBZD5cfR5CMWcPn3uTeuMjPBEIx9z24HHqFXLZup1Nbe37ASQt7eX3DO4r8k7l1v3RAFEAZRfAYR3QVRUlFy+fFkOH77Rf2VMkrhL7Vo1Naxz3/4DOvHSt28v6dypg7z51ns6+XHmzBlBRMiJEyeldOlSGpK6c9fum0y2uK4hLC/Hjh3XCAMjIcLgYvJFnTiNiqogu/fs1bLApqtXqyqnTp/OcmKU0SO59Qr2PY7xGybR4Kk2EiZfYU+YNENCP43/MAYxvN7G7zgHbR4cHKjvROO48RvGNni/GAIIk70lQ0tIypUrmaJfMuzUTYKDgsTD00PvZSSMl2BHsN+SoaGSejVVJ3xzS/QA0QOUo41AzCxYuFgmTLgxeBzzy4+yZMkyGTd+ol6LQfGoH7+Rb779Qb1A5gII5+7dG2PyDrVs2UJKlYpQscSUNQHMQsMLYiyOxrqP0JIlZPz4KdpJ4O8xv2asj0HCmhiEW23ctMUqAYSQOogppDp1asntjevL7+Mm60sOL8IH7h+oA/dixdylQ/vW6lGAEEPCoBwLzTEQhwcpuufd+pLDGh+k7LwDmDWvVrWS/D7uT5NQgOfovnv7y/IVa3TdDrwDp07HSdzps9KiRe4CCPfD+qT9+w9qyBnEwKpV69XTYZ6w5qR8hXLKL7uUFwEEN71557s3Zr+W3xBAqCNC/iD6IBSx3gV1MxijDNaEwGEzgl69uuogHDwwubBw0d8Crw+8IgcPHpGOHW60D9bMnD0Xr94gy9SmdQuBVwXMjTVA8C7ipYGE9V3r1m3SfxvHYQ8IgbP0ghhrZ7JjABvNLm/kj1C9O5o00o0UrqSmyvz5S1RMWybYIja8qFWzupYjZt8BWblynZ5mrQAqW7aMbkgB3lgTAaG4YmXG5iwZ67myPm60n+UaN1yHlyZs7Z/lq7XdYTveXl6mOmOzDDw/5nXKqb3xvCP00NJus7JVCiAKoPwIoK5dOqugweATzwEGpU8/M1Rtdsg9A6VduzZ6DLYN8f/nn9Nk0KD+2j/gd5z/7HMv6rv92PHjAlGi0R9pafLHhMk6HkAa9tJQqVWrhuaB++zevUc+/mSEHhv51Wf6jilRIkT/Rt4LFy2Rtm3uMkUz7NmzVz76+HM9zuiRbF9XBXqgYYO6GiFi7qVGtAFChvFOw3vH19dXbQF9Nt4XxtrMhx4crH0u1n7CXiZNnilpadclumcX3awHE594BWGSD+HciCiBXbi7Y52sm06aI3ID9oSNeDAhK5Lx3oJdzp6dsW4V7xy8V/wD/MXL01MnJBdl8R60BEcBRAGU48OEDm/06DGyctUaPa9kyVD57NMPZeTX38nmzVtM10LozJ33l0yZMt0kgPbGxMjnn32kSv5Kyo11JZj1QRgc080EDI8Nwt3M16rg3/C0GCFwWPRupAH9o+XQ4VhZv37zTQII3h4cNw+BwzocCAYkeBbQwaEjMxI6LQy0MTuN2ezMYqu3hmOZJ3RiGV6c7NeHdOrYRtcdwTthLhTwO/JbsnS5epOwIBwz7NYIIHgE6txWU26/vYFgLU2Xu9vL6tUbbhpIYiexZs1u13pktzV7XgRQTmuA4G2CAELCGhbMRmHtDYRiXgUQ8oBAhHeuXr3bZMXKDKHYqFE9XWNy+MhRiSxXVj00SFizgjbDDJplgpcQCWugjBC3mTPn6QsDIgoDcHhakIy1TOP/mCLNmzVRLw7yNNaiWRMCl13e5uXCBg1durQXTy/PHMWpYafwDhprqyCANmz8V3bu3JOpqhATOAcvXZQT/RXWUF28eFFFK7yeRsrpuCE+jXVr5jcxNuow1m/BdrDTHsoCuw0KCsgUFoprcxJAEFMbNm65aUfFrPpHCiAKoPwIIHhfAgMD1fMDz82IER/LqJ9+kdWr18rPo7/P+P8vv+nAsly5shrtcd9990iL5k0zTVZiPABPwOcjvtRQ6bfffl28vbzlpWGvqbkiggCz/ImJidKxY3sZNLCfPPHks3oNBJB/QIC89uqbcjouTj54/x31KGFsMWbMWOncuYP069tbHnvsaR0zMHrEMUZI8AAhssRYO4lS3Tuknxz4/xNwq1ev14mss2fPqZhp0/pOFSLG+ARjCWPtrfH+iI7uItggZ+q0uRrWDyGEd7kR3WL08RDKeG+a3xc7csJ7D3GEyU8IHZxvXIs1ydjwx9pEAUQBlKOtWC6kRAcJsTN16gyZPScjjh+uz2++/sIklCw9QKtWr9VjTNYRwOAOgykM8CxTVnGy5gII60QOHzmmHRMS1gtBZJgLIKyZwU5ixsAyOwGEGRasw0AoD2ZgjEX2GPgZC9MhahCqZMz6ZDU4hn3gHAxEEfZkLoCMXcwOHYrVBecQQFWrVLJaAKEO8IhgthFlQTksZ9KNwaz5TmiWXO0hgDDoHTgAoXBndCvl/Agg8EdICYSx0Q7YvAIzYRhUHDt+QsULEtoR3jnLXcUQagBxadiU5SYIeGlhYwt4h9DO5seNFw1m3fBSw0vOGgFkrFGyzNuSe+XKUXJXq+byy5g/cn04YNtHYo+plw//xgYg5uF+CDuDnRm2nlM5cbOcjqPeWI+G7cGxbs08waOIjSfQnnhGzG0HEw5gjfBU7FpopJwEEAYJuIc122FTAFEA5UcAGXZYs2Z1iYyMlH59e2lUxo+jfpaPPx4uoSVKyJy582XOnPmmDXSyE0D4vAU+c4EE0TKgf1958KFHTbaOvrhBg3oa6dGnd7R8+dW3smXLVhVA8Ioa4e8DB/TT6x9/AgLpsvbho3/6Tr797kfZsGGTjjMYPZJrt1ggJ2TszJoRXo13GSYbzTeoQQgaNq6JjCyr3h5j0hR928aNW0wb+aCwGN+sWp0xSWWeMLap9H9eJeN3jW7Zd0DzMBLGE/iUBcLD4XFCWDeurVKlonqS8pIogCiAcrSXrHaSGf7eW/ptDqwLSkpMkhdffE5njZ588jmduTG/BudivcDESVNk6dK/NXa4dOnSsmlTxoYJTDcTQOcCMbBy1Xo5dOiICkwM7uC5yU0AYU0PYmSxC9u169e0o8IAOj8CCC8rbF5grHVo366Vhi+Ye59QetwDA3R4CTCoRHkRYocZfoRd1a9/m3oPsJU0OlFzAYTrMZsE8bJ27UbZtTsmzwIIWxz37t1NZy+XL1+jAgidMDpEhFchGTvRQYBhBzCIB3SiFxIS9N/GLL6x4xquwewU8kQnbL4NNlzx8JAZCTNciGG2rBeOG9tS49/WCCCEAYARNnlAqlWrujS9o5Hyg7AxksEM4W6xR4/rz+jMMVMHEQNP2PETp6R0qXD1fmEAjnAuDNgtBRBeXoMH9ZWDhw4rP8vjqC9C+Ixd4tDGOTEw3wXOMu/batdQ0Yb6QJjB+4S2nzR5RqY2gxcQZT55Kk7LjNAICI+lS1eo5wveILCB0Nizd596Edu1balr58b/MVV53IoAwvX1690mDRvW1fDAPbtjdLMXhJ/iG0TYPt0QOJbiGeGe2NwAdTLWLWUngMzDHC2/aZRV30gBRAGUHwH0xOOPSKPGDXUDI8zW4z28bt0G+eHH0eLj7S2PPPofqVevrprcrFlzZObMOdl6gEb//KusXLlaz23V6k558IF7VQBBwAx/702JiIjQsFO8PyIjy8nIkd/J5n+3qAA6cOCQfDXyW73WWGP034efMJk6xg4o0759+xk94kCDI4S7tWrVTN8hd7VqpmMKvI/wHsD7H/1vUlLG2nL8Zi6AzN9RRoQLNvbB5w3MU27RLdjgB2s4IXrQVwYG+Ou72xBAmOy1HJvkhpACiAIoRxsxOqS1azM8Bkhwob/++jAJDQ3Vv7E2AZ2WERJnLoDQub799hsqgoz1BuvXb5Tvvh+Vm2267HE8lOhUEGpjMIMwgEDANsvwmpgPhjHjjHCE9Rv+VeHUtUsHfRkhHT16XGdlDAEEbwk8QKvXbNDjGERicb0RtoXfMGsDAYOPlGIxP/6/ctVaue/egVmGHcF7gLVCkyfPlKbNGgt2wUKCtyA5OVmF25q1G0y7XGGxeZMmN0LFmjZtrB+8hIcDg114BVre2SzLTRAMdzzCvswXxWP3NXwI1ViXAc8JXOtGOBg4tr6ruZQrV0YH3EgIh8OMlm4e8X/rOMyNDjNPGzZkrKsyBBB29zLqZ5xriBPLehnH4fLHh00NDw5+z25AjA0O9u07YHLjow4QoQiDM/cIQtBVqFBOZ7yMj6ciXxUVHVvrR1lRZ+NDpxBsRvgXyglRZHhpcJ2xFgzrjbDxgeVxY13QwoXLpEbNajkyyCnvzp3bmT4aivtibcHCRct0wap5m5kLR8OWdu/eaxKGeAniRYwPqhptiXZAyJphF2gr8DPfkt28fXM7jnMh2CCCjOcJ4hIbkKA9jGQpgFA2bGyAgaax3Xd27Q0hB1Fl/vzl1PFRAFEA5VUAnT17Vl57bZhMnTZDZs+epxMlo0Z9KxvWb9T3tpHQLz7+2MPSsGF9eerp56V372i5s0UzeeTRp0znWI4HzAUQPEZYz/Pa62/pRgnwNr087IVMAgjrNRE+j5STAMJ4Ax4gRo84xjAI/Q5CdTGBiBBsjDUQbobPLgQFB5pCmPHhZ3hmzAUQ3j0IVTOSsbsm1s6ap9wmd7E2GWMRY20PNv3xKFbMJIDys4U2BRAFUL6fMCx88/XxkfPxNy9gtswUhgYRhEGB+Ycz831zF7gQYTj+/v46oDPfWcWaqmPgB88EdkW5lYRZcIRVYVbd/NtCt5JnQVyLQenWLTtkh8UaEdwbs1Do0DF7lN2aoIIoo+U9jEGy+cdPb6Uc8MAlX8zYpceRErw0mDGE+DEXb5ZthjZCSBnOMRe7lnVBPS9eumTXtjR2GcrqG1L5ZZshlDI2MDE8frnlRQFEAZRXAYTd1d7836sybtwEWbN2ndw7ZLA0bdpEIDIggDp1bC///LNCNyTp3q2L9O7dUwVQi+bNdCOEV197U06fjtPnMCcBZGymMOzl11VkPffsUxoGZ+4ByosAYvRIbr1BwR5v3bqFVChfTj0wxmQl1p2ij8Y7CzvS4mPj2LAmJwGEcDp4iebMXSAJCUkSERGm63pyE0AQYEeOHJPlK1ZL+fLlNKoDn1MxPEAUQPmzB26DnT9uvMpFCMADYSw2dIYqQzh27dJRQ/fyKhwLs35YY1W7Vg35+59VhVmMQrm3s7bZrcDChhlVq1WWCROmZRKCOeVJAUQBlFcBhDU7EBMIU0dCeFpScrIcOHBQ1/L88P1I0zfncHz9ho3y/fc/Cb4D9OmnH+gxTKQ9/MiTKoBwbN36jAgC7Or60IP3aQgcNloY/t7bJg8vPnqOUDvsDotvCX715Wca2oa/kSC07u7cUfM1knn+jB65ld7F9tcamxLAC2PsIosQ904d2+qmBEjY/a262S61xoZK5h4gTCbBc4TPQyCpsP5tYq7RLUZIsnEN1mcGFw/SXVIRGYMQuLx+RJUeIHqAbP+kMMciRcD44KozeYCKVAOwMkWSAGZKESaaF5FOAUQBZK0AsnxoIGi8vL0yfZvHOAe7JeJzFghds0zw4iCU2fjmS24PI9YHY1MDa8/PLT9Gj+RGqPCPY90vvPTmHv3cSqXfEvLxyZP3Ht4nRLfY0rb8fP1yK2qRPk4PUJFuXlaOBEiABIoGAQogCqD8CqCi8QSwFiRgOwL0ANEDZDtrYk4kQAIkQAJ2I0ABRAFEAWS3x4sZuxgBCiAKIBczeVaXBEiABJyTAAUQBRAFkHM+uyy14xGgAKIAcjyrZIlIgARIgARuIkABRAFEAcSOgQRsQ4ACiALINpbEXEiABEiABOxKgAKIAogCyK6PGDN3IQIUQBRALmTurCoJkAAJOC8BCiAKIAog531+WXLHIkABRAHkWBbJ0pAACZAACWRJgAKIAogCiJ0DCdiGAAUQBZBtLIm5kAAJkAAJ2JUABRAFEAWQXR8xZu5CBCiAKIBcyNxZVRIgARJwXgIUQBRAFEDO+/yy5I5FgAKIAsixLJKlIQESIAESYAhcFgQGDKQAogBi50ACtiFAAUQBZBtLYi4kQAIkQAJ2JUAPEAUQBZBdHzFm7kIEKIAogFzI3FlVEiABEnBeAhRAFEAUQM77/LLkjkXA3d1d/P38HatQBVwat/btu6UX8D0L9XZJyUmFen/enARIgARIIO8EKIAogCiA8v7c8AoSyIoABRA9QHwySIAESIAEnIAABRAFEAWQEzyoLKJTEGAIHAWQUxgqC0kCJEACrk6AAogCiALI1XsB1t9WBCiAKIBsZUvMhwRIgARIwI4EKIAogCiA7PiAMWuXIkABRAHkUgbPypIACZCAsxKgAKIAogBy1qeX5XY0AhRAFECOZpMsDwmQAAmQQBYEKIAogCiA2DWQgG0IUABRANnGkpgLCZAACZCAXQlQAFEAUQDZ9RFj5i5EgAKIAsiFzJ1VLQgCtWpVl/Pn4+XUqTjT7erVrS3nzp2XY8dPZlmE8uXLSelS4eLn5yeJSUmyf/8hqVK5ori5u2V5/ubN26RcuTLi6ekhZ86ck2pVK8vmf7dKWlrmHe3r3FZTzp47LymXU6RylYqZ8kpPS5dNm7felH/t2jXE19dHf7906bKcOHFSLlxIzHQeyot7HzhwWH/Hdpo1a1SVsLCScu3aNYk7c1aPXb9+3XRdxajy4uvnK7t27c2UV2RkGYmICNff0q6nSVJyshw+HCtXr17T30KKB0uFCpGyZeuOm8qKcoSHl8z0e2JiksTEHMj0Gzr6Bg3qZPyWjnpdktijxyU5+aL+lOm42ZXHjp5QzrmxNS9fdmW6knJFvLy8ZN/+g6Y7IO+QkGDZvn236bfgoECpWrWybNy0JVMdihcPkipVKmVUIT1d2/TwkaNy8eKlm7hkxxptm5qaKvv23SgDLsb5V69dk2PHTphY4N/mNozz6tapJUeOHJWExCRtl+xsypL3hQsJcuLkKbUnI0VFReo/Dx8+elP5s/uBAogCiALI6seFJ5JAjgQogCiA8vWIPHD/ENm9e6+sW7/BquvfevM1+eTTL+Ty5RsDAKsu5ElORaBC+XLSrl0rmTp1tg4SkQIDA6Rf3x466J44aUam+mBA3LVLewkJKS4YJF6+nKL/xiAegz0Pj2IqLoKDg3SwfvXqVb1+9pyF0qZ1CxUUixb9LYMG9pa//14lBw8dMeVv3HfxkuUqaFo0byLx8RdMx6+npcmsWX/dxPeee/oKxBHuFxDgLz4+3nrfGTPnS1JSsp7fof1dem/j+oEDosXHx0dOx50RT09PKRESInPnLVRxZqR7h/RX0TRu/BQdhBsJeZUtW1rOnYvXe+GeSH/9tVROnjot1atXkWZNb5dff5twU1mNaxMSbgg03HPlqnWZzkW+gwf1Ua5IAQEB4uYmsnzFGhVqxnHUDwLOSGvXbpK7726XK1vz8mVXJtS5Ro2qMvb3yab8+/frqfWdOGm6SRw0bdpYqlapJL+Pu3EeLgAHtCHqoB2SGQAAIABJREFUB45oX7zAtmzZIZv/3ZapvtmxRtt6e3nJnLkLJS7urOmarl07yKWLl2XZ3ytNLMBhwsTpJpvDyfffN0DZgplRnqxsyuCJdoEIRllhF2jj2XMWSFpamkD4tm93l0yZOttkV7k97BRAFEC2EECwIzw75s96brbH4yRgTwKwSbyTLCcx7XlPCiAKoFztKzS0hERFRUlsbKycOXNWfLy9ZeTIz2XlqjWyePFSiY+P14ErUpkypaVURITs2LnLNMiLjCwn7737pnz8yQhJSEiQU6dO6wAMKTHxxsAtLCxMkpOTTHlh0FqzZg31HBw5EptrOV39BLQTZsNTUjLaAgkMU1Ov6ssOM+1nz57P5JXAwMwY1ON8Dw8PnaWHWMkYKPurEAgKCtR2P3P2nM6+I7/QEiHqXcFgzkgYZOO3hQuXmX67s8Ud6kXw8/OVmbPm6yDQSO3btdJjGBSa/47OEPdBMgaTs2b/peU3krkI6d2rq9YTA1sj3dGkoQ64fxs7KUcRYWk3GCTv3hVjGlR7eXlKr+iu4u3tJZMmz5ArV1IzCaDSpSJUJPw5ZVa2A1ljsJt69ap6gP79d3uW9cCPYHvvkH5y4uRp5ZibADIXYtk9AwbDmbP+0ucJqW+f7nov1Cmr40ZeeWVrKQ6NfMLCQqV7t04mcQxBgHqineHtMbxAKBeE2sJFf2eqTlYcevToLPAY/T7uT9O5ObFG23p6eGrfNHHSNNPLNisBBLuGFwgC2kiWAig7YZoVz9DQEK0/hD7ENFKv6C7a3/21YGl2TZfpdwogCiBbCKCmTZvIY/+PvfMAj6L62vhLaCEVUui9Kz0gf4ogKF2EoHSxYAGp0puANEUFkaKCKKICSi/Sew+hgyIlQOid0BIgBAjf954wyyYk2U3YkGz23OfhAXZm7tx558yd+7vn3DPtP8L7bdtZZXe6kyqQ1ApwcitnzuzyHn1eRQFIAShOW/Pw8MDIL4fJwJWzmBwc/714KapXexmZM3vKwIWDhFmz5mLV6rX44fvvJISJv3HWfsGCv7EtcAdGfjlUjjXCgXr17o8OHdrJrH7fvgNN55/80/fYuHELZvw5E0OHDETevHlkhorHEoCGDP3ieT0XdnWeHDmyoW6dmuIx4R96DZYvXyvXQM8LwcDLK7Ppmg4dPorAwF3gwL7N281gDhYEBoIDoYHlg7atBWgIOyy8t3v2/osK5cuY6tu+fTcOHgoCQ5TebNIQCxYsxfUbN03b332nuczSFylSENeu3ZBZdhbO4nOmfvfu/dj/z39xam4NADHsju3mQNiY1SSMXbhwSc4XH0TEPHFMAIpqa9RgffPmQAnhMh/kU//69V7DkiWrJPQttkIvFwshr2DBfPjzr/mm3WIDBrbh0sXLMvhOKgAimLIt9MjEB0AJ1TYuAOIFv/9eK+zd+4/c76JFC6FK5ZckFI+gTW8a+w1CRkDAThwJOhZNyth0qFXrFWTL5osZM+aa9o1Pa+p6+NBRlC79otgsbZclNgDavmOP2BTh5Pz5i7LfswAQjy9QIJ94Lg0v4IsvFEXFiuXxx7SZVs18KgApACkA2dXrWRtrpQIKQFYKZePd0tSq1TD6wgEbnyClVRcaFhUGY6m83bolXn2tBtq37yyDSh8fbwlho5dhypRJWLjgbyxessxUTalSJXDw4GEBnb59eiJXrpzo+mlPFClSGJ8N6INu3XvL7CfLgAF9JIa+d5/PTMcbABQQsA2ff/6ZeIwOHTosngdPT09cuvxkTYmltjvKdg4YCRhcC7Fp0za4urrIzL4BJQQgDi7Xrt0kA82yZUqibNlS+P2PmQIg1gAQZ+PnL1gqg1OGmvG4lavW49y5C6AHx8srC2bPWQSu8/HzK42pvz0J1eI6h5o1XpYBX5HCBaIN9rJl9ZWBJ0OAjNCs2O6bNQBkXEvg9t04dCgInG1v3Ki+eJYYMsXBMwfbR8zWxjA86b//Dj91ytgAiDsRqHjNGzcFPBUCZ+hMOOL6JPO1HvSotXm7qcAM10Yx7MtoF+slMGTN5ivrnmjr2bNnFW8TvQTUxRIAcf2Qeejf6dNnxXNhXswBhx7bnDmyo2bNargaEiKwbGznsXcee3MfRUZiW+Auk53Ep23MELi42kQPCCdO6KmrV/dVAXber5o1Xxbo5gxgndo1MOPPebh3795TAMR7SHBJlzatrH1iv7B5S1QYH4slrXlveX94veXKljLBemwAxLC8116tLhM1f/41T+A/JgDFZVNxAaUx6bB+/RacOHla7vPbrZti6bLVuHTpisVuSwFIAchaAGI0xoULF5EjR3ZZmxgUdMwUgm7uASpUsAAyZMyAI0eORvPm0xg5Q/7ii8Vx8sQpWZtoFHdGcKRJI9EGxYsXxbmz53Ht+hPPvrEfJ1E5Djh8+IjJo2/RyHWHFKVAxowZ4eSUxhSZY9gFo0uMNaQcY/AP37Xm616NCBJOjHt6ukvYsbHd+O369ZtiRwYAzZu/BD7eXgi/d++pcQHb4enhgXSP1/4aQrFfZd/IUHUfb29E3I94at1ubKKqB0g9QHE+bKVLl0KP7l1wPPgEZsyYieDgE6Z9YwMgbmTHWM6vLPzKlUGZMqXR9oP2CQagWbPn4qefvkdYaJh4lwK2BaaoDiElNYaDwIav1xHgMcIQK1Uqj8tXQrBmzUbxAD14+FAGeiyGJ4MDcAKANQBEbxEHnSwN6teCh4ebaS0PF7wTgn6d+ifoUciXL7cMXo3CAS8TGXA9C9fztGjuL2souAjdODbmmpiY+loDQDyGg9gM6dNjwcJlqFatktRveAaM9Rrmi9oZCsZZ/pglLgB6682G0uET/mJ6OQiHTDLw4gvFBBiCjh7Hli1R63A40C5TpgT+mjkfjOrzb1xfwtDWrtss21kXvUgM72OH7OHpLr+vW7dZPFiWAIjQYL7WiJ4TAwiMazM0NL9WHkPvBl8axnauZ2GIHwsH/EZoliVtYwJQXG0iJJctW1JghzBBuw06Giz/pqeOa6G4jszcQ2a02fwe0qbcXF0lxJPhhIYH0ZLWBgARumiLhDHCO6/v7p27WLf+yRogAhBL82b+OHYsWOyW7dy6dQeOHT9hWgMUm03F51Fr+34r0wQF6+f/6VlknZaKApACkLUA9NvUyZLAhSDEQlv/869ZWL16HQwA4juA4c20Kw5Mv/zyG3nfs7z77tuoWaO6/Jvbz549h0GDh0k9Xbt0RJGihZHJ2Vn6LG5neHzvPgNM+zPsPXfuXCbwmTBhIvbsjZ7YxJK96/bkV8CvXGmULl0impe6SpWKKFQwv6zT5PrXTJkymSJ/tm3bicNHorz3jCDhu57RH7SbWbMXITLyIfwbN5DIIq734bofvg8qV6ogEQm0JScnrv1NIyHlfJ9zAp52yggTZvEx7HXx4pUSbUJ4Yoi1q5urjAE4Abh6zUaL4ikAKQDFayT/q/gSWrZsJgvT6YEZOXKUeHFiAhDX+fTr20uMmut8ONBjmFxCAOjnyT9gw4bNEgKXO1cufPxxW+TLl1dmB9h5/nfwSaYoi5btIDswZI2z0DE9KAzZCdi2UwCIIXHGYNzolDjjzMFuTABiuNNLFcpGC4HjWgzDo8BZexZjYMyBLn8jANHTw1A7zuCwxDbo5u88Lzs12krLFk1knUtc2eHM64lvDRD3M8KLOFvfrGljCVUjvLE8awgc62AIHNepMBtbfGFezDTG0CkOmJmNrXWrNyVBgnlhx//HtFny0oitLq4p8sqSWWDSEgAlZA3Q+g1bceP6DTRsWFe8WevWR0FYfAP2hGobnzZ8idFDSW0IzAb8Egr5sqM3kWGEGzcGPPUEx6YDs/y99FI5zPhzroCbJa3NAYj6+vs3kEyAuXLmkH4mJgDRk2ecg/bHCQCG5xkAlJA1QLwgznpywGAeJkqo2rlr31PZAWPrwhSAFIASAkC3b99Gz579xO769OkB36y+EtFRoYKfrAGiZ4aRFu7u7vh29EgcO3Zc/u9Xriy6du2INWvXY+bMOQJRDEsPDNyBnyZPEQDy8yuL9es34s+/ZqNAgfwY0L83Rn87FgcOHMQHbd9FtWpVMXzEVzJx2rdPDxQuXAgft+vkIG/m1HOZ9AC93fot6ZOPB0d52vkuPB58CgEBO8QTf/VqiMAMxwAEEU4qGWMNZjPl2l9jjMI+1yWTM+bNXypefo4D2M8SYtjHG+9Nvgv4XjA/L6MjOOFEOOLEFMcl3N84lutrGalgbVEAUgCyylaKFi2CPr27ixv9m1FjBIAWLVwsa4JYvho5XCDpkw5dhfTbtn0X1atVjQZAPXr0NbnJGSLHTvXTbr3keL7Yp/76k8xOEYCMwmxaDJfjQ9KxUzer2upIO/n4eKHRG/WeymplaEAAIgxtDdhhkoWzMgQghmNxDY45gHAWhmszzNcAWQtAzN5VsEBe0+x9+fJlUOLFYrLI3ihMePBK9SryG0Mp33+vJS5cvIyV8SwCt9YDRBt6792WOH3mLPLnyxMttO5ZAYgzWNVermRaLxXfIJ/XyoH4qdNnBYDoBePg2Ug2QS8c74sxUxZbXYQDpnxm5jdbApCRBKFQofxyH4xQPEsAlBBtLWlDm+OMnqwffGwb9AyVLPWCzN7R80XtYpbYdMibJxe4DogvWHrhLGltDkCsn/bOSQRO6nA2PDYA4n6ENq5F5L3jfUssAL1as5p4Js0z+vF5JIhakw5bAUgBKCEAtHTZCsyZE7XekJOZHTp8LF4eL28vAaD+AwZLmBxLv369JHyIa3TbtftA9v/wow6mx7BXz26SsKZb9z4CQOXKlcEHH35i8vBMmjgeO3ftxpQpvwtMpUuXHosfjw84kUkg6t6jT7RMnI70rrbna+UYg/01Q5cJIZwIMk/6wxA0JgPKkyeXeHuMMHj2bbt27cM//x40XT7XgW4NiIoCMS+EmIKPvUrG7ww7ZzQF6zAKw+qy+vrIOk72+QzP57GFCxcwjVus1VoBSAEoTlspWfJFRPz/rGrQ0WMyQ0TIYTICAhA7u3PnzssMD41wxPDPwXjfHj37olChgujerbMMFugBYljchAljMH/+ItOaoVatmqNO7ddkxujY0eNo3/4j6VAJQCtXrQaBi7NNNNDevbsjV86c6NRZASi2m8U1QAzN2rwlUEKhOAPDsCZ+uyY+AOKaA84+8++16zZJSBGzarEkBoD4HRxCENcXcTaIs0anTp19KiUz20sw4EwNYYuDfc4scT0OkyRwzQVdiEYiBWsBiO1mOB4HmNTDmIXi78YaIK43Moqkur59Wzpsdp5G4ggOko8fO4EDBw5LOFrBAvmkneazS+aDfK5lYhsJcgwjoRufsMSBPOs11kiZ3zu+QBi+RW8Z62KnvnzFOjg7Z0C+vHkknM5ImWy03fCsGfVwRo3H0qtinjGNM270ZphfV2yAw5A+DurNs8CxzSHXnsTyE1KNLH/xaRszBC6uNrHtdeu+ilw5s8vaH64xYuHaNYakGbZnxIkTUHh+hioaAMTQNK4BypkrO/zKlRLv2m+/z4y2Hi0urWMCEGcSua6Ns5z89lJcAMRMc2++2VAmarjWzgAgel9jsylDb04u3AoNE294qVIvyIvbHPC4DrJJk9efShwSV6esAKQAlBAA+uOPGVi3PioUiGFKE38ch0mTfgHS4KkscD26d5X1Oj179cPgQf2RJUsWARaj8NMXL79cBR993NEUAtelSw/T9u8nfId//v0Xkyf/Cq7n5bvbWCNi7PT1N99KWJ4W+1KA4W7Vq1cWj/0r1StLf8Z+j/0832Xsg0NDo9aW8zdzAGIoPtcfR9mgs/S3S5eulk9GmBdCDEOgzd/bfCdwreSOHXvkPVy1akUZb3Js4O7mKmH/BgDFPNYahRWAFIDitBP/xm/A3/8NmeHhi5fG9s033+LEyVNo0fwt1K8ftaCZGeDoGercqb3sx7J7915xkROAWOg+5ywQ9x867EtcvXoVX4wYGjXYBWSBpVMaJwQEBIJJEAYPHmCqi4MhutnXrn2SWtka43aUfaihMaDmNVNjY5DFmWsjHM7QQzxAjzug4vzGTOWXRGseR5cyw9rMAchIeMDjOXhlMTw2RgY0hsAZC9B5btpKXAkOCDz58+fF9BlRqYtLlXpRPEX08hnFPDNcXADEmX8eY/4tHyMlNb8Lw8xzRilWtLB0njEL280MbqzHAAzjWzHcl56Kmzf5YdZg/Gf2AVPzc1NDxkQbhfDHb2Tt3LUX777TUv6OmWyBqZpr16qB2bMXoXLlCjJzZhTaOxeLco0Q0zXH13a2g14Q80Iw4svJ/LqMMAbzNNhGCBjhggkYCKwxi3kGtPi0pQ0ZXo342sT6CcrcP+a3eDjbx+s1Bwp6i44ejYJlYw2Quc5hYWECLTdu3LBK68b+9SUJAuHLKMaM5okTp2UdkqGV+beJuG+FCmXlQ6hMgiHfAYrHpow6jHPci4jA9Ws3JHzSyCjHbQyVJFybp/GOr99SAFIASggA8TMV02dERVS88EIxSU5EDw/D0WKmwTYHoE4d26N06ZJo/0kXkzn268uojajERvQA0UPd9dOoCA4WcwAa9c0XMlDt2at/fOas2+xEgagIgBaSsZWRHTt27pUJQXrcOUlorLUt71dGPDPmAGQeQcLLpQeIXvSYWT5jywJnDkCMFmHYtrG2h5O1nAgzACgxKbQVgBSA4n0EOUOcNauvrOuJ+cV10jxniYwZHT4k2bNzMXdItI8HGifgrAEhxzxbDL1D9BTFzCDDzpN1MUbU+G6JnfQVydZM6siPPN6+cyfBGXfogWAcrvk3fRJzIUzIwE6FIUkJLdL+jPwG0bO3IyHnJvDs33cAB2LJCGdtPbR9ejGon3kGOGuPT4r9bHFdSdEua+s0wNdSlkBr60tp+7GPI3TSGxpbMo7Y2qsApACUEABiJMDnQ0aIJ+bzwf3l+3uEmti+A2QOQISbgZ/1kzU+M/6cJQmNOMG5YeNm/P77dIsA1LJFM9SrVxsrVqzGor+XyEC1fAU/bNjw5JtaKe151PbEr0CNGlUlQQ37LX46gRN1fN/zvcc+mt8ZrFf3NUkCFB8AMZyOXqIlS5mIKVQ+Y8B1PZYAiADGiJJNmwMkyoPhxAxdVgB6NsvVNNjPpp8erQqYFGAYXbNmjUxpt1O6NAyBer1BHSxbviZa+s6U3m5L7UsN18VQzhIvFseGjVstXa5dbq/4/8kbihQthL/+4gdZn3xMOL6LUQBSAEoIADFxUbasWcWk6F0dPXqshLQb64HMP4TavVsXWeNjeG0YAdK4cVTYJ0tQ0FFJkMCBb+dOn0h2V2MNL7czzP3ffw5g8s+/yv5dOneQKBDj+JCQEPUI2WVPFdVoIykBvTCMCmGJ+gbhq5KUgIXZ34oVLRQvAHG9ED1HRvQP+z6GMDOcmF4c8wgAfjKCocn0OPETHvzMBguPOX36HDwze0j4MI9lCFxCP6KqHiD1ANnxI6lNT4kKcAbo4cNIqwd1KfEatE2qQFIrwOeE4ZLm382wdE4FIAWghAAQ1+Ps2r1HZtwZmZGYwkgMprhOiJ2an4ffIeL6kJjrgRLTFj0mZSqQmAgSwgfTqCckYoXeJ4ar28qWFIAUgFLmE6WtUgVUAVVAFYimgAKQAlBCAUi/o6ediCoQuwIKQApA+myoAqqAKqAK2IECCkAKQApAdvCgahPtQgEFIAUguzBUbaQqoAqoAo6ugAKQApC1AMTQMyYQ4tofLaqAKvC0AgpACkD6XKgCqoAqoArYgQIKQApA1gKQHZizNlEVSFYFFIAUgJLVAPXkqoAqoAqoAtYpoACkAKQAZN2zonupApYUUABSALJkI7pdFVAFVAFVIAUooACkAKQAlAIeRG1CqlBAAUgBKFUYsl6EKqAKqAKpXQEFIAUgBaDU/pTr9T0vBRSAFICel63peVQBVUAVUAWeQQEFIAUgBaBneID0UFXATAEFIAUgfSBUAVVAFVAF7EABBSAFIAUgO3hQtYl2oYACkAKQXRiqNlIVUAVUAUdXQAFIAUgByNF7Ab1+WymgAKQAZCtb0npUAVVAFVAFklABBSAFIAWgJHzAtGqHUkABSAHIoQxeL1YVUAVUAXtVQAFIAUgByF6fXm13SlPAyckJri6uKa1Zz7U9aWrVavjouZ4xmU8WGhaazC3Q06sCqoAqoAokVAEFIAUgBaCEPjW6vyoQuwIKQOoB0mdDFVAFVAFVwA4UUABSAFIAsoMHVZtoFwpoCJwCkF0YqjZSFVAFVAFHV0ABSAFIAcjRewG9flspoACkAGQrW9J6VAFVQBVQBZJQAQUgBSAFoCR8wLRqh1JAAUgByKEMXi9WFVAFVAF7VUABSAFIAchen15td0pTQAFIASil2aS2RxVQBVQBVSAWBRwZgLJmzYoSJUti/bp1DmsbYWFhUABy2NuvF25jBRSAFIBsbFJJX1369Olx//79JD0RH4xHjx4hMjIySc+TmMrTpUuHhw8fSvu0qAKqQPIoQBhJkwaIjHx+z6EjA1DJkiXlRh84cCB5bngKOKsCUAq4CdqEVKOAApACkF0Zc7asWfH11yMwaPAwnDlz1mZtZzrEoUMG4vc/puPYsWCMHzcax44HY/z4H212Dmsr6tSxPYJPnMTy5StjPeTnyT9gzdr1mDVrrrVV6n6qgCpgYwWqVqmInDmzY87cv21cc9zVKQApAKkH6Lk9bnqiVK6AApACkF2ZeEIAqFKliihSpDCmTfvT4jXSq/Ldd99gypTfsW/f/mQFoEED++HEiZOYPmOmApDFO6c7qALJo4AC0PPVXT1AQEr3AHEikZDOCAUtqkBCFEgOj7oCkAJQnDZKg8yRIzsuXLhoCrfKlMkZbm7uuHLlium4/PnzwcPDA8HBwQgLux2tvuLFiuLy5Su4dv266Xdvby/cDruNdOnToVixYjh58iRCQq7F2Q7CyQvFi+HOnTtSf2weoNjOQ48ODfzHiZPl2Bs3bso5cubMgezZsuHAfwcRERFhOi9/v3LlqoTXxfQAsWMv8eILsu3osePxdvC+vj7yorp7N1zqNnS8ePGShNRZ2k59Iu5FIDQszNS2ggULwNXFBYcOH8HEH8epByghPavu61AKZMyYEU5OaUzPHy+e/QD7LqN/4j6ZM3vg1q3QaPtxn4iI++Dz7uPjJX2G8Rwz9Ja/sY7Q0DAYADRv/hL4eHsh/N49qc+8sB2eHh7S1125EmLaxPqdnTPizp27yJLZExkyZMCly0/61LhumKN6gBR+oiwiJQKQecRC1y4dUbhwQXT9tJdD9Tl6sc+uQHJMKCkAKQDFabnubm6YMGEMvv7mWxw6dET2a9y4IRq98To+/KgDypYtgy6dP+EIH3j0SAYZgz8fjtOnz6B8eT907NgOThInn0bC1Ri2xkK4IBQVKlRQ/r/o7yVYuHBxrO0gdPTo0VXqZrl165bAlhECF9d5unfrgjJlSpnW8fz33yGM+W48fvj+O7i4uAiIcBCyYMHf+HvxUqn7t6mTMemnXxAYuCMaALV5uyVee62mQA/b8eDBA3zcrlOcuk2aNAHbt+/E1Kl/yD4Emm9Hf4WhQ7/AiZOnYGm7wBfD8Cb8CHd3d3wxYgg8PNzlWnhuAuGKlas1BO7Z+1ytIRUq4FeuNEqXLoE/ps00rc+pUqUiChXMj2nTZ6NGjaooWCCf6Vk6ceIU1m/YKko0a9oI16/fQO7cuaRbC9y+G4cOBaFunZrIlSuH1EeoWblqPfLny4OCBfNJ/+bklFZ+JxgtWLhM6uYz+2aThgAemWbFFy9eies3biJ37px4tebLCLl2Hdmy+iI8/B7+/GuexbthLQDVfPVV/HfgAC5fvmyxTnvYoUXLlpL8ILVcT2I1T4kAZB6xoACU2DurxykAJY8NpKlVq+HzW8WaPNcY7ayhYdFnKeNq0hMAGoNDhw4/BUBffjEUnBXt3WeAbMubN4/ADwfoP/30PY4cDhLoyJrVVwbxixcvw/wFiwQuCDG/TPkNW7YExKsIAYwQ9dXX38qgolfPT+Ht7S0ARM9UfOf5auRwma0d8cVXpnOUKlUCBw8eFpjp26cncuXKia6f9owXgKb8MhEBAYGY8uvvMpDh4Ci+9UcEnB3bd+LXeAAovu3mANStW2eUKV0Kkyb9gn/+PYD27T4Q8Fy+YpUCUAp4lrQJKU8Benfebv0WNm4MwPHgk9LAd9o0w/HgUwgI2IEsWTKLR/jevQgUKpQf1atVxrTpc6R/IQC5u7thzdpNOH06ao1hhQplUarkC1i8ZCWuXr0GZ2dn3Lt3D1Uqv4RixQpjy9btCAo6Di+vLPBvXD/aebNnz4qLFy8LHDVv5o+zZ8/L/gSgOrVr4Nq161i6bDXu339glZCOBkBG5rcrly87dPIDwzgSA0DxRWFwMpARHIwsuHv3rrzfihUtgouXLpkiJoxz0zuaP39+2e/kyVMmezWPWFAAsuoxtqudrPGou7m5gn/o5TYPf+RvHIPRzjw93XH58lXTduO369dvIjw8/Jk86hkypBfbZYSOj7c3Iu5H4MaNWxZ1Vg+QeoDiNBJLANS27buoXq2qeDtmzppj6jAJGT17fCrAc/NmVNjZW281wblz5wVGOMC/FRqKgQOHxmugNE7Cx5o160zrYerXr4sWzd8SAMqc2TPe88QGQDwhr6ucX1n4lSuDMmVKo+0H7eMFIIbceXt5YcnS5ViyZLkMlOIrtgQgAmDorVAM+OxzOSXBkfopAFns23QHB1ag0Rv1xMu7ZOkqEEIa1K8lyQrooWGh95e/E3Y487hs+RoBFQIQ4WjpsjUm9fz9G0ho27p1m6MpyuMKPvYqGRtat3oLQUePY9eufaZ9OQjI6uuD0qVflPPOX7DUBEDz5i3GzRhhc/HdNkcCIIa9GWmvHd3zkxgAshSFQegmtLPQrlatXotXa74iUQ78/+HDR2TikeXoQSEqAAAgAElEQVT1BvXQtGkTGbxygpOD2i5de0hUgvmEnQJQ6ut0LXnUW7bwR6ZMmUxRNdu27cThI8dEiA/atsbRo8EoUqSg2Mqs2YsQGfkQ/o0bwMWFx9A7Dvz+xyxUrlQh0R519sW+vt5wdXNFhvTpZaJp9ZqNFm+GApACUIIA6M03G0tnyBA4FnaKtWu9KjHs//77H74bOwGNGr2OJv6NcPNmdAI/evQYvv9hknSYwcEnMHbcD/EaqK+vL0Z984Ucs2vXHtm3QP58+PzzzwSA/PzKxnuemACUJ09u9OvbSx48ghmzSBOiLAGQc8aMaNf+Q4Ellr//XoJFi5bE2faYAGQkbjAPgTP3AMXcbv5CYca3vXv3yzomoxAK+bLSLHAW+zfdwUEVYLhb9eqVMX3GXLxSvbI853PnLRYAeb1BbQlLDQ+/i5s3Q5EjR7ZoAHThwiXx0hilzdvNEBR0DDt27n0KgBgWN3vOItPvLZr748TJ09ixY4+E2VWtWlHOybA3dzdXWU9kDkC/TrWcoMX8pByYVvpfJYt3leDAEDh7Kr5Zs0pz6fVhYfsdOeV1bPfOWg+QNVEYrm5uGNB/MC5dvgxGc3AN7Jat2yR0u1692mjW9E188kkXWdvG54Xh2PT8eGXJgjFjvsbkn3+VyAgFIHt6yhLeVkse9axZfXD1aojATM0aLwuIGH0iAYigvejv5ab1kZxQcsnkjHnzl4onneMxroUkxCTWo24ce/DgEQlbtrYoACkAxWkrpHouuGf4VeD2HbJfp07t4VeurAmAjIPr1KmF1q2aY/r0v3Du/AX07dMD344ZJ1AUs1ibYpoDh1+nTJIF/6yXxdwD5ObmFu95CEC379zB8OEj5Vj+n+Evn3ToKrMRhgfLEgAZ7We4X4dPPhbw6tyl+1MJH4z9Jv44HgcPHsKE7yfKT/+r+BI6dPjYtAbI0nbzFwo9QGGhYeg/YLDUxYHc2O9GqQfI2h5O93NIBQgK773bArt370f58mUEXvhyLFe2FMqVKyUvaM5iM6kBvUXmHqDzFy5i69ao/o6FYW1ht+9gTYwZxdhi1s0B6P33WuLcuQummchGjeohXdq0zwWADJhg6Ji9FMPLo96euO+YtQBkTRQGwy+HDP1CTtayRTOBng4dP5UQNwLULz//iB9+/Ak7dz4ZUL7wQjHkyZMHzZo2kUnJnyZPUQCylwfsGdppyaPOELQc2bMhT55c4u2Z+lvUeI0ARG/4P/8eNJ39/fdaYWvAdvEMmZdn8ajz2MKFC4gnKSFFAUgBKF57obfh7Nlz4grPmSM7BgzoI/vTA/Tyy1XETU76p2dm8OABEqq2bt0G0HPBhAVcB8MEBCVKvCCZ35gEwFoA4nk42OcMxA8/TpLMaB07thcIoAeI7YrvPP369pT45m7deiPi/n2MGP65hJD16NlXEjB079ZZ1jBZAqC6dWph48bNuBcRgTcaNgC9YPEBEGfTGFrAlwtnOLhI1MvLywRAlrabAxCBs0J5P/w1cw727NmLjz58H8WLF1MASkgvp/s6pAJMdpAvb27xwPwxbbaE75QpUwIM6Zg1eyGc0jihZs2oGcv4AIj787i16zbjzJlz0v9wkFjer8xT3wEyByAC2KlTZ7FpcwDy5s2NV2tWkzDhZ/UAubm6WbyfqS0JgsULdpAdrAUgJiuyFIVx/PgJjBsfFYXBSI56dWvjo487mpQ0TwrUsUM7lK/gh4cPHsj7ntlhGfrOpEHqAUr9xheXR52JXhhezHWRoaFRa8v5mzkAceLo9Jlzso3ryFq1fBNLl65+KuslISaxHvXYjrXmrigAKQDFayfM+NakSSOJCabXhKFrhAoC0ID+vVG0aBH5ndsvXbqMgYOGykI07tOnd3dZ/MbCfab+Ng2bNm3BuLGjcZwfGZ1g+SOjhQoWQO8+PcAwNJbjwSfA37gm5vz5C/Gep1TJEpJBzshCt3DREnTu1F7+z7J7917x5pgD0MSJP2P7jp1RbQyO+hDqpInj5QHnNbDs2LkL3C+uQk147ZxFkzYfDxbgMkLgLG3nuY1wQXrhhgz5DAyTY2Fq7LROTli/YRPmzJlvzTOu+6gCDqmAkZSAXhhmbTNewE38G8jzzMJwN3qBVq3egEuXrqDpW2/Ib1sDnniAuB9DO/Lnz2PqO/gCZwIFfgiVoXVGad6sMU4yBG7nXpQtUxJ+flFhs1yPdPr0OXhm9sCCBUvlRc/McokJgVMAckhzlou2FoBeeKG45SiMx5lGWW98AHQt5JpMfM6bv1DW9XLQOHnyD9i5Y5cCkIOYYlwe9Tca1oWHpztmzIj6KDsnhbjW0RyA2LdyTY5R6AHiOqEjQVHrhIzyLB71xGaQUwBSALL4CNP4s2fPJt/IiZkAgAN0Jghg1pjYkgO4urpI7DDTXnMQkNjCuOO74eEy8xpbies8UYudo9pOMDOuhbNY/L+1xcfHW9Y5EbqsLfzeDxdU3759J9ZDLG03P4gLqemtYopeLaqAKvBsCjDunLHpCekDeEY+h1zHY+2HHtn/8Fwxv4+W2NY7UhKExGqUmo+zFoBoJxajMKwEIL67Bw/qL2Ho2wK34502rcGPjPNzEeoBSs3WFv3aYvOoN3y9Djj24iRQliyeqFf3NaRPny5eAGI4Hb1ES5aulDWY2bL5SgIaSwAUn0ddASjxdqhpsBOvnU2O5OxSkcKFnqrr55+nImBboE3OYetK/Bu/Id9Eill27d6DH374ydan0/pUAVVAFZAJHGs8QCpV6lTAWgDi1VuKwjCiDLgvw7rr16sT7ft2DIEzIiIYPs7PP7BwUo+RCIxsmDz5V4mWMOrq3OkTFC1aWD+EmgrNLzaPOhPI1K3zqqT5Z2H2t2JFC8ULQFwvRM+Rp6eHHMOJ8d9+nymfFUisR53H0qvOTJ8JKeoBUg9QQuxF91UFVAFVQBVIJgUUgJJJ+BRy2oQAkNFkW0Vh8PMRGTJmQEjItRSihjYjpShAzzgzuSUkyofwkcnZWRJVGcsLLF2PrT3qCkAKQJZsTrerAqqAKqAKpAAFFIBSwE1IxiYkBoCSsbl6alUgRSugAKQAlKINVBunCqgCqoAqEKWAApBjW4ICkGPff7162yqgAKQAZFuL0tpUAVVAFVAFkkQBBaAkkdVuKlUAsptbpQ21AwUUgBSA7MBMtYmqgCqgCqgCCkCObQMKQI59//XqbauAApACkG0tSmtTBVQBVUAVSBIFFICSRFa7qVQByG5ulTbUDhRQAFIAsgMz1SaqAqqAKqAKKAA5tg0oADn2/dert60CCkAKQLa1KK1NFVAFVAFVIEkUUABKElntplIFILu5VdpQO1BAAUgByA7MVJuoCqgCqoAqoADk2DagAOTY91+v3rYKKAApANnWorQ2VUAVUAVUgSRRQAEoSWS1m0oVgOzmVmlD7UABBSAFIDswU22iKqAKqAKqgAKQY9uAApBj33+9etsqoACkAGRbi9LaVAFVQBVQBZJEAQWgJJHVbipVALKbW6UNtQMFFIAUgOzATLWJqoAqoAqoAgpAjm0DCkCOff/16m2rgJOTE1xdXG1bqZ3VlqZWrYaP7KzNz9Tc0LDQZzpeD1YFVAFVQBV4/gooAD1/zVPSGRWAUtLd0LbYuwIKQOoBsncb1varAqqAKuAQCigAOcRtjvMiFYAc+/7r1dtWAQ2BUwCyrUVpbaqAKqAKqAJJooACUJLIajeVKgDZza3ShtqBAgpACkB2YKbaRFVAFVAFVAEFIMe2AQUgx77/evW2VUABSAHIthaltakCqoAqoAokiQIKQEkiq91UqgBkN7dKG2oHCigAKQDZgZlqE1UBVUAVUAUUgBzbBhSAHPv+69XbVgEFIAUg21pUMtWWLl06PHz4EI8eOVRCv2RSW0+rCqgCyaGAAlByqJ5yzqkAlHLuhbbE/hVQAFIAsn8rBvDz5B+wZu16zJo1N1Vcj16EKuDoCmTO7IEqlStixcq1iIzUiQ3agwKQYz8VCkCOff/16m2rgAKQApBtLSqRtX0+eAC+GfUd7t69m6ganhWAKlWqiCJFCmPatD8TdX49SBVQBZ5Ngdy5c8LHxwv79h2Qinx9vVGzxsuYN3+JeHefR4nZhudxzoScQwEoIWqlvn0VgFLfPdUrilKAfVuaNHiuk10KQApAVj1/hQoWgKubG4KOBCH83j3kzJkDFy5chI+PD/Lly4N//jmAiIgIqSt3rlxwSuuE06fPRKubxpY/X15kcsmEAwcOmrblyZMbw4cNxtffjMHNmzdx8eIlREZGxlsXNxZkm1xccOjwEUz8cZxVHqBMmZyRP39+Aa2TJ0+Z2jB0yECwfT9OnIw7d+7gxo2bVumiO6kCqoBtFKhX91Xww3SbtwQiIuI+7t+/DxeXTAgLuy0ncHNzlX97eLjDOWNGXLkaIiGvfG69vbLgasg1U79h3iJvby/cvn0H4eHh0RrKsFlfH2953m/eivo4dMw23Lt3T37PmDEj6JG6dSsUd+8+qSehbTL259+uri64du067t9/YLWACkBWS5Uqd7QFAHXq2B7BJ05i+fKVqVIjvSj7VKBqlYrImTM75sz9+7ldgAKQAlC8xlamTCl07doJaZ2cZLDBAcCn3Xrht6mTsX//v+B2/t6n70A8eHAfX34xDIQM/sbBQ7/+gwQmCDnDhg5C5KNHcEqTRmZ0R44chVuhYRj55VAYa3jYmF69+0ub4qrL3d0dX4wYIgMhnufBgwdy/IqVq+MNgXu9QT00bdpEzs39OZjq0rUHun3a2XQdBK///juEMd+Nf24PoZ5IFXB0Baq9XAlFihSU55nPYPCJUzhx4jTq1K6BX6dGeWU/aNtaIIeww8L99uz9FxXKlzHJt337bhw8FCT/z5EjG+rWqfl4ZjENLly8hOXL15pAh9uNvuP8+Yu4c+fuU23YvDkQNWpURcEC+Uz7njhxCus3bE1Um3gNly9fRdasPnI8r3fTpm04HnzSKhNQALJKplS7ky0AaNDAfjhx4iSmz5gJdzc3dOvWGcNHfJVqNdMLsw8FFICS5z6lqVWroUMFmIeGRc12Wiqk419+/lFmi776arQMALy8siAk5JoAEP8/dNiXOHPmrFQ16psvZKb08yEjEBoahnFjR+HKlasYMvQL2V62bBns27dfZmzHj/sWQUFHMW78DxJ69tmAPujWvbfJ8xJfXeywy5QuhUmTfsE//x5A+3YfSN3LV6yKF4A4E0x4oufHK0sWjBnzNSb//CsCAgLx1cjhAkQjvtAXgSW70O2qQFIo8EbDurgbHo41azZK9QxHiwlAnICZv2CpeIpatXwT6dOnw8pV63Hu3AXUeq269E+z5yyS7e++0xwnT50RwKC3pelbb4CAdP7CRbzZpCH+XrwCV69ek/7I2TmjeIlitoHtyJIls3iJ7t2LQKFC+VG9WmVMmz5H+j8CjbVtYl3cn3XNmbsY6dOnR+1ar8DbOwv+mDY7Vu9VTJ0VgJLC8uynzsQAUMzoDb4HI+5FIDQsTCYE69WtjcGfD8eDB5wYTIurV0NM0RxUxsfHW7ynhifWftTSltpCAY7pnJzSRPN8s8/kRLe5d55e7StXQqKFKxsebxcXF3h6usvkjxHObPx2/fpNsS8DgBjy7OPtJZFG7FvNC9vh6eGBdOnTybmMkiFDepnoYtSAj7c3Iu5H4MaNWxYvXz1A6gGK00hKlSyBnj0/RZcuPaSzNC8EoJWr1uCvv2abfp766084ciQIu3btkd+qVauK7Nmzof0nXUz75MiRHSVefAF169ZG2rRO6NGzX6wAFF9dEyaMQeitUAz47HOp18PDA+PHjbYIQEYjXnihGPLkyYNmTZtIW3+aPEUByGJXoTuoAkmrgDUAFBi4y+ThaVC/Fjw83DBz1kJpWN68uQWC6DGih6Xh63UEeIyQtUqVyuPylRCsW7dZ4Igv78Dtu3H27HnThcUGQNxIoMqePSvc3d3kRb1s+RpcvHhZgMbaNhkAtGPHHhz477CcM1euHOKlWrhouYTDWSoKQJYUSt3bEwJAcUVv8F157FgwDh8+glatmsvAkYNSPg8csG7fsROTJ/8qQmbIkAE/TZqAlSvXYOasOalbXL26WBXwK1capUuXwB/TZprW51SpUhGFCubHtOmz0bKFPzJlyiQTOOwnt23bicNHjkld7B+PHg02edZnzV6EyMiH8G/cQMKbmdyG635+/2MWKleqgIIF84k9OjmlFejiRPqChctksokRP5y4AnhMlM0uXrwS12/clD6Za0Zd3VyRIX166dNXP55Ii++2KgApAMVpH40bN4R/4zfQ9oP2T+1DAPrll6nYsnWbbOOs0rejvxJqvxceFTfPwrU2DIOr9VpNtGjRVB6QqyEh8PT0xJ3bt2MFIEt1MeHB3r37Zb2OUab8MhGrVq+N1wPUsUM7lK/gh4cPHsgsF2Fs+/admPTTLwpA2vmrAsmsgDUAtGr1BhOwcL0Oy4qV6+Rvxo/zNwJQ8eJFUKXyS0/NIDLULWDbThPI8Jjw8HtYvWaDzCjGbAP7q9cb1Jb+LTz8Lm7eDJXQOnMAsrZNxoBg/fotOHHytLSZHqx32jTHqlXrcfbcBYt3QAHIokSpegdrASi+6A0DgMZP+BHvvvs2qlapZJqk7PZpJ7zwQnHT/994owHebNIYnbt0Fw+pFsdTgB6gt1u/hY0bA0yhuu+0aYbjwacQELBDJps4niLMMGkNQYReeKO/4xrHRX8vN/XF/v4N4JLJGfPmL5VlEgQhhh8TYooVK4wtW7cjKOi4ePP9G9ePdl5OQnHiiXDUvJm/vAu4v3HswYNHZFLL2qIApAAUp62ULPkievXshu49+uD69RvR9iMAcZYoYFug6Xd6bbYGBAoYxSxTpkzCyRMnTbHGX389AunTpYsGQD169MW161GzoPHVRQ9QWGgY+g8YLPtmzuyJsd+NitcDVLRIYQwY0Afz5i/E4sXLJOxl8uQfsHPHLhMA3b5zB8OHj7T22dH9VAFVwIYKED74QiRQsMQWAmctbDCbXKM36mHJ0lUSdhFXcXZ2Rr16ryKTszP+mjlfAMi8DeXKlkK5cqXkhc4ZcqPeZwGg3Xv2Y//+/6RJRn0zZy2QQYClogBkSaHUvd1aAIoveiM+AGJyoy+/GIrx43/Enr37MOqbL+V5GDhoaOoWVq8uXgXYl9LDw/6UEELvO5MV0EPDwhC0HNmzIU+eXOLtmfrbX/I7PUC7du3DP/8+SXr1/nutsDVgu3iGzAshpuBjr5Lxe+tWbyHo6HGpwyj0Umb19UHp0i/KhDpDonls4cIFxJOUkKIApAAUp70YkHDp4iWMHj0Wd8PvolChgpLBLTYAGjH8c2TLlhUzZ83FunUbxMOSI0cO7N69B/TQHD4ShDFjxkto3PvvtcG1a9cEgLgQk1Azf/4iLF6yTNrDrHBx1dWpU3tUKO+Hv2bOwZ49e/HRh++jePFi8QIQM8YNHtQf06f/hW2B2/FOm9Zg6uvAwB0CQP369kT+/PnQrVtvRNy/b1U8fkIeNN1XFVAF4lfg1ZovS8jsrNkL5fljeFjMNUDWAhDPZIS5MascvTucmWSMODPMcd3N2bMXJJSiZo2q8PX1ASEkZhv4kmUICNvklMYJNWtGzXA+CwCxDQx5Y9ZMDiRcXF0wY4Z13y9TAHLsp8haAIoveiM+AKK6Y779SsKKJkz4USYWzSM9HFt9x716hrtVr14Z02fMxSvVK8uk89x5iyUsjX0YJ5JCQ6PW6/A3cwDims7TZ87JNq4b4trNpUtX49LlK08BEPt8w3vEjS2a+4u3nGHDTERTtWpFgR7ap7ubq4Q3GwAU81hr7pYCkAJQvHbC9TLMkkY3KAtTVDOkjQBEcCBAGIWpaYcMGSjgwhc1y44duyRUrU2bVhIGx/IwMhJHjx6Dr48PevbqJ78xDXW+fHklKxITK1y8cDHOuhhvOmTIZ8iWNascy/VJzFK3fsMmzJkzP87rIaDlzp1LtnMhMo87fjxYPFmcMevRo6u0m0kdBg0eZs3zo/uoAqqAjRTgrF6DBrUlvIEZ2/7556CsjzHPAmckPOAp6z4OgVv5OASOoWn1671m2t/T00NeznzpsrBv4fqfm7duwb/x63Ie6Y8ePsSmzYFgdreYbdiwYSua+DeQFzzLhQuXxGtDELt06YrMcCakTUYmOy7yZSGMEaasWf/D/RWAbGRsdlqNtQAUX/RGTAB6uWpltGvf2aRI/Xp10Lz5W/I+rV6tKj76uKOdqqXNtpUC7Hfee7cFdu/ej/Lly2DHzr1guBk95h6e7qYJnPJ+ZcQzYw5A5pNWbA89QFwndCQoap2QUWLLAmcOQO+/11KS3Rhrexo1qod0adOaACgxKbQVgBSArHpGmGiAbk7GeloqNCpCUMxsMsx6xIwyhCgORmIWzipwltUIg+P2uOriNrpCWWfM8Lz42kdvU4aMGSSTXcwStdA5m2Su4yytFlVAFXi+CsgA381V1hsY3wJ71hawj8iYIQMY4mr0OzwPM8MRfsy/62OCjBhtYJw6Y9mftV8gAHFAQJDKmDGDVWFv5tevAPSs1mDfx1sLQPFFb5gDUN06tSQRAsPJL126LM+ccSw/V7Fv3z+SqVWLKsDPAeTLm1s8MMxayb6TiWbYj9IblCWLJ+rVfU3WNcYHQAyno5doydKVsqYyWzZfWddjCYAIYKdOncWmzQGS8ObVmtUka7DhAVIASpyNahrsxOmWIo/iOp8ihQs91baff54abb1Simy8NkoVUAVStQIGAJlnnkvIBSsAJUSt1LevtQDEK48remPc2NESgfH9D5Mk/HzUqC/Fw0m4/7hdJxGN2V8ZFcH02DE/aJ76VNUrskYBIykBvTD0erNEfWuNH7CO8qYz+1uxooXiBSBOpNNzRA89C6H7t99nStIaQgxhyijNmzXGSYbA7dyLsmVKws+vtOmY06fPwTOzBxYsWCrHMgQuoR9RVQ+QeoCssX3dRxVQBVQBVeAZFVAAekYBHfzwhACQIZU10RuMfGDdxnddBvTvjezZs6Prpz0dXHG9fGsUoNeeSVwS4rWXbwk5O0fzzFs6F71P9Mbb6ptUCkAKQJZsTrerAqqAKqAK2EABDhQYcmd8DDChVaoHKKGKpa79EwNACVWgeLGi6Nu3J2bPnieJhbSoAqlVAQUgBaDUatt6XaqAKqAKpCoFFIBS1e1M8MUkNQDx8xO0seDgEximn4RI8P3RA+xLAQUgBSD7slhtrSqgCqgCDqqAApCD3vjHl53UAMTMqkaGVMdWWq/eERRQAFIAcgQ712tUBVQBVcDuFVAAsvtb+EwXkNQA9EyN04NVATtTQAFIAcjOTFabqwqoAqqAYyqgAOSY9924agUgx77/evW2VUABSAHIthaltakCqoAqoAokiQIKQEkiq91UqgBkN7dKG2oHCigAKQDZgZlqE1UBVUAVUAUUgBzbBhSAHPv+69XbVgEFIAUg21qU1qYKqAKqgCqQJAooACWJrHZTqQKQ3dwqbagdKKAApABkB2aqTVQFVAFVQBVQAHJsG1AAcuz7r1dvWwUUgBSAbGtRWpsqoAqoAqpAkiigAJQkstpNpQpAdnOrtKF2oIACkAKQHZipNlEVUAVUAVVAAcixbUAByLHvv169bRVQAFIAsq1FaW2qgCqgCqgCSaKAAlCSyGo3lSoA2c2t0obagQJOTk5wdXG1g5YmXRPT1KrV8FHSVZ/yag4NC015jdIWqQKqgCqgCsSrgAKQYxuIApBj33+9etsqoACkHiDbWpTWpgqoAqqAKpAkCigAJYmsdlOpApDd3CptqB0ooCFwCkB2YKbaRFVAFVAFVAEFIMe2AQUgx77/evW2VUABSAHIthaltakCqoAqoAokiQIKQEkiq91UqgBkN7dKG2oHCigAKQDZgZlqE1UBVUAVUAUUgBzbBhSAHPv+69XbVgEFIAUg21qU1qYKqAKqgCqQJAooACWJrHZTqQKQ3dwqbagdKKAApAD0XM2UWTf4En/48GGSnzddunRynkePHCrJX5LrqidQBVSB5FFAASh5dE8pZ1UASil3QtuRGhRQAFIAeq52PHTIQNDoBg4amuTn/XnyD1izdj1mzZqb5OfSE6gCqoBtFcic2QNVKlfEipVrERmpkxhUVwHItjZmb7UpANnbHdP2pmQFFIAUgJ6rfSYEgD4fPADfjPoOd+/eTVQbnxWAKlWqiCJFCmPatD8TdX49SBVQBaxXIHfunPDx8cK+fQfkIF9fb9Ss8TLmzV/yXDzGPGfMNljf+uezpwLQ89E5pZ5FASil3hlt17MqwL4tTRo818kuBSAFoDjtlgaZI0d2XLhw0RRGlimTM9zc3HHlyhWkT58emTN74sqVqyhapDDSpkuLoKBjTw1WfH19kSdPLgQFHUXvXt2jeYBogPnz5UUml0w4cOCgqS158uTG8GGD8fU3Y3Dz5k1cvHgJkZGRst3DwwO5cuXE4cNHngpvK1iwAFxdXHDo8BFM/HGcVR4gXlP+/PkFtE6ePGVqgwFrP06cjDt37uDGjZvP+ozr8aqAKhCHAvXqvgqGyG7eEoiIiPu4f/8+XFwyISzsthzh5uYq//bwcIdzxoy4cjVEnn/2Id5eWXA15JqpjzA/hbe3F27fvoPw8PBoZ2aIrK+PtzzbN29FfRw6Zhvu3bsnv2fMmBH0SN26FYq7d5/Uk9A2Gfvzb1dXF1y7dh337z+w2iYUgKyWKlXuqACUKm+rXhSAqlUqImfO7Jgz9+/npocCkAJQnMbm7uaGCRPG4OtvvsWhQ0dkv8aNG6LRG6/jw486gB6Sjz/+ALfDwuDu7i7hGRy0fPnlNzjxGCT69euF4sWKmkAlIiJCgIkhcIScYUMHIfLRIzg9Xhc0cuQo3AoNw8gvh8JYw8Pz9urdXwCEUJQ7dy5TfRMmTMSevfvk/F+MGCKDIx8VQUAAACAASURBVA6KHjx4IMevWLk63hC41xvUQ9OmTQTauD8HWF269kC3TzujTJlSUhfB67//DmHMd+Of24OpJ1IFHEmBai9XQpEiBU3PW/CJUzhx4jTq1K6BX6dGeWA/aNtaIIeww8Lncs/ef1GhfBmTVNu378bBQ0Hy/xw5sqFunZrSL/HPhYuXsHz5WhPocLvRT5w/fxF37tx9qg2bNweiRo2qKFggn2nfEydOYf2GrYlqE6/h8uWryJrVR45n/7Jp0zYcDz5p1e1WALJKplS7kz0A0LNGbqTam6cXFq8CCkDJYyBpatVq6FAB5qFhUbOdlsoTABqDQ4cOxwpAn7T/SODom1FjJFysZ4+uAip9+w3Eyy9XwUcfvo/ly1diztwFqFPnNbRs0Qxnz54zrQEqW7YM9u3bL7O448d9K16iceN/kLo+G9AH3br3NnlePmj7LqpVq4rhI75CcPAJ9O3TA4ULF8LH7TqhW7fOKFO6FCZN+gX//HsA7dt9ANa9fMWqeAGIs8OEJ3p+vLJkwZgxX2Pyz78iICAQX40cLkA04ouvLEml21UBVeAZFXijYV3cDQ/HmjUbpSaGo8UEIHpg5i9YKp6iVi3fRPr06bBy1XqcO3cBtV6rDi+vLJg9Z5Fsf/ed5jh56owABr0tTd96AwSk8xcu4s0mDfH34hW4evWa9D3OzhnFSxSzDWxHliyZxUt0714EChXKj+rVKmPa9DkCRAQaa9tkQBzrmjN3sXjQa9d6Bd7eWfDHtNmxeq9iSqoA9IxGZueHJwaACjEqws0NQUeCEP7Yo0kZsmXNCs/MnvLONUpCoj74juaE5qlTp03Hxxa5wefn9v+/R9OlT4dixYohJOSqvFevXg0xHZchQwbwXcxoEy0pSwF6v52c0kTzfLPPZOSMuXeeXu0rV0KiRQAZHm8XFxd4errL5I+RAMv47fr1m+KdNwCIIc8+3l5iq+xbzQvb4enhIbbEcxklQ4b0pgl4H29vRNyPwI0btywKqR4g9QDFaSTWAtCAzz7H+fMXpJ7OnT5BOb+y+PDDT9C9WxeULPmieIuMMmnSBFx97AEyfmOYXYkXX0DdurWRNq0TevTsFysAfTt6JNKlS4/Fi5fKofny5RUg6t6jD4YNG4zQW6FgW1gYJjd+3GiLAGS04YUXiiFPnjxo1rQJdu3ag58mT1EAsth96A6qgO0UsAaAAgN3mTw8DerXgoeHG2bOWiiNyJs3t0AQPUb0sDR8vY4AjxGyVqlSeVy+EoJ16zYLHPHlHbh9N86ePW+6iNgAiBsJVNmzZ4W7u5u8qJctX4OLFy8LAFnbJtbD/Xfs2IMD/0VNKOXKlUO8VAsXLZdwOEtFAciSQql7e0IAiBEMXbt2QlonJ/E0cjD5abdeMtE3YsTn4ABUIhwePcLEiZPlvWdt1EdYaBg8PT1EbA5Uhw37UkI5Y4vcYCj55ctXUKhQQdn/xImTKFAgP9q17ywRIywdO7SDn19ZfPRxx9R9A+3w6vzKlUbp0iXwx7SZpvU5VapURKGC+TFt+my0bOGPTJkyyQQO+8lt23bi8JFjcqXs744eDTZ51mfNXoTIyIfwb9xAwpuZ3Ibrfn7/YxYqV6qAggXzCcg4OaUV6AoNDcOChctksonRPZy4AnhMVCbhxYtX4vqNm9Inc82oq5srMqRPL3366scTafFJrgCkABSnfcQGQG++2RgMGzNC4OgBYqdFA2WpW6cWWrVqjvfbtsOQzz+TNULduvcxnePLL4bKg8IQuFqv1USLFk3lobkaEgJPT0/cuX07TgCa/NP3MltrzDoYlTJEj53s3r37wfU6Rpnyy0SsWr02Xg8QO97yFfzw8MEDmZEijG3fvhOTfvpFAcgOO2ttsv0qYA0ArVq9wQQsXK/DsmLlOvmb8eP8jQBUvHgRVKn80lMziAx1C9i20wQyPCY8/B5Wr9kgM4ox28C+6fUGtWV2Ojz8Lm7eDJXQOnMAsrZNxoBg/fotOHEyatacHqx32jTHqlXrcfZc1CRSfEUByJJCqXu7tQDE9+QvP/+I4BMn8dVXo+X9TO9oSMg1cCLR2TkTvhs7HsHBJ9Gje1eUKPEC2n/SBRn/3xMTFfYef9TH6dNnMHbs93jw8KHUF7h9B6ZM+T3WiUtORHJC8pcpv2HLlgBZyzdh/BjMX7AIixcvkxv206QJsm6XdWpJWQrQA/R267ewcWOAKVT3nTbNcDz4FAICdshkE8dOhBkmrSGI0Atv9HcE40V/Lzf1xf7+DeCSyRnz5i8F11gShBh+TIgpVqwwtmzdjqCg42Kv/o3rRzsvJ6E48UQ4at7MX94F3N849uDBIzKpZW1RAFIAitNWSPVMJMCwMnZwLJ06tYdfubLRAGjY8JESksbStu27qFyposzuMCytVKmS4g0yirkHaMqUSTh54qSEtLF8/fUIpE+XLhoA9ejRF9euR82MjvrmC4Glnr36P9Vmdtqcleo/YLBsI3iN/W5UvB4gJm4YMKAP5s1fKB0xH4bJk3/Azh27TAB0+84dDB8+0trnSfdTBVSBRCpA+OALkUDBElsInLWwwWxyjd6ohyVLV0nYRVzF2dkZ9eq9ikzOzvhr5nwBIPM2lCtbCuXKlZIXOidejHqfBYB279mP/fv/kyYZ9c2ctUAGAZaKApAlhVL3dmsBqFTJEujZ81N06dIDoWFh0USZ+utPWLt2PabPmCm/M/yMk4vf/zAJRw4HWQVA342dgP37/5Xjuc7X28sLvfsMiBOAboWGYuDAJ5++4IQlvamM9mCUSK+e3TBk6BfRkhCl7jtpX1fHvpQT1+xPCSH0vjNZAT00UTaUHjmyZ5NkV1zLOfW3v+R3eoB27dqHf/59kuDq/fdaYWvAdvEMmRdCTMHHXiXj99at3kLQ0eNSh1EI0Fl9fVC69IsyHmRINI8tXLiAeJISUhSAFIDitRd6Ubhm56uvv0XOHNkFGFjMPUCM2/1y5Cgh9sGD+ksnRqj5X8WX0KHDxzLrM2v2PNStWwsNX69vWgPEug8fCcKYMeMllO3999rg2rVr0ika3qf58xdh8ZKoWaIWzZuiXr3aWLFiNRb9vQTp0qYV782GDZsEzCqU98NfM+dgz569svaoePFi8QIQM8axvdOn/4VtgdvxTpvWktghMHCHAFC/vj2RP38+dOvWGxH371sVo5+Qh0/3VQVUgScKvFrzZWTPng2zZi+UZ43hYTHXAFkLQKzVCHNjVjl6dzgzyZAbZpjjupuzZy9IKEXNGlXh6+sDQkjMNvAlyxAQtskpjRNq1oya4XwWAGIbGPLG9RMcSLi4umDGDOu+VaYA5NhPjLUAxGRF/o3fQNsP2kcTzMfHG6NHjcT4CT9iz54ng0pC0dJlK7ByxeqnACi2qA/Wa3xgnB4kZmXt2Sv20HV6gDhBOnbcD6a2cBK1a9eO6Nt3IN5//x05vuunPR375qbgq2e4W/XqlTF9xly8Ur2yTDDPnbdYwtLYh3EiKTQ0ar0OfzMHIK7pPH3mnGzjuiGu3Vy6dDUuXb7yFACxzze8R1FjPn/xljNsmIloqlatKNDDsDd3N1cJbzYAKOax1sipAKQAFK+dMONbkyaNZKDADo8dGaHAHIAuXb4sCypZrl+/gQGfDTbF3Xfp3AHly5eTbYzZpKuUL/5Bg4ehTZtWEgYn2yIjcfToMfj6+EhHysJZIq7z4XmHDvtSwIr1MVaY7WEJCQkRjxC9VUOGfGZqB2e9GPu8fsMmzJkzP85rHDH8c8kqx8LFyTzu+PFgTJ78KziL1qNHVznXmTNnpc1aVAFVIGkU4Kxegwa1JbyBGdv++eegrI8xzwJnJDxgC+o+DoFb+TgEjqFp9eu9ZtqfaxT4cuZLl4X9CNf/3Lx1C/6NX5fzGP3Sps2BYHa3mG3YsGErmvg3kBc8y4ULl8RrQxC7dOmKzHAmpE1GJjsu8mUhjBGmrFn/w/0VgJLG9uylVmsByPCqcH0s38lGof0QdubNW2iaWOSM+vcTvsMvv0zF7j37rIr6YIi7UWIDIPPIDQLQsePBGD/+x2gyT5o4XsLWK1asYDFU3V7uT2ptJ+3mvXdbYPfu/Shfvgx27NwLhpvRY+7h6W6awCnvV0Y8M+YAZD5pRX3oAeI6oSNBUeuEjBJbFjhzAHr/vZaS7MZY29OoUT2ZBDcAKDEptBWAFIAsPrM0fs7MMn21sdaHB9FbwjVA7AyZSQ2PHj3lbud+TC9NFzlBKWZhJiTOSvE7P8aMkvk+nGngzKsRBmds41odzjjEXA/Ezpx1mnf6li6Q3qYMGTNIfHTMErX4OerajQWblurT7aqAKpA4BWSA7+YqGdmM734lrqYnR7E/4NoGhrMafQzPw8xwnJQx/64Pj4qtDYxTZyz7s/YBBCAOCAhSGTNmsCrszfz6FYCe1Rrs+3hrAcgI57508RJGjx6Lu+F3JQkBv7XHST96PDmpyMRBvXp1k0nATp26SUIDa6I+4gKg2CI3xo0dFSsAvffu26hRo7rckM5dusszryXlKsDPAeTLm1s8MMxayb6TiWbYj9IblCWLJ+rVfU3WNcYHQAyno5doydKVsqYyWzZfWddjCYAIYKdOncWmzQGS8ObVmtUkQ7AC0LPZjKbBTqR+5gCUyCqey2EM2ytSuNBT5/r556kI2Bb4XNqgJ1EFVAFVwAAg88xzCVFFASghaqW+fa0FIF45M5vye3ZcxM7CScZ+/QdJFrjPPusDb29v+Z0RGQz5NkLi4ov6MMLazQGI2V65Xs9YmxszcoPbGVXBsDvzYsCSRlfYh50aSQnohaHXmyXqW2v8gHWUN53Z34oVLRQvAHG9ED1HRhZBTnT99vtMSVpDLw5hyijNmzXGSYbA7dyLsmVKws+vtGziMadPn4NnZg8sWLBUjmUIXEI/oqoeIPUAJfrpq/S/ivjkkygPkBZVQBVQBVSB+BVQAFILeRYFEgJAxnmYgY2DTvPv7nAbw8aZ/CNmdAW3xRX1YW3b44rcMD/eWI9kfHfP2rp1v5SnAL32TOKSEK+9fEvI2TmaZ97SldH7RG98zMgfS8fFtV0BSAEosbYjWdNyZM+Os+eiFrhpUQVUAVVAFYhbAQ4UGHJnfAwwoVqpByihiqWu/RMDQClRAdoxP5ORLVtWfNKha0psorbJARRQAFIAcgAz10tUBVQBVcD+FVAAsv97+CxXkBoA6KOP2uLlqpUl8dHYsRPw779RKeG1qALPWwEFIAWg521zej5VQBVQBVSBRCigAJQI0VLRIakBgJwzZoSXtxfOn7f84d9UdOv0UlKgAgpACkAp0Cy1SaqAKqAKqAIxFVAAcmybSA0A5Nh3UK8+JSmgAKQAlJLsUduiCqgCqoAqEIcCCkCObRoKQI59//XqbauAApACkG0tSmtTBVQBVUAVSBIFFICSRFa7qVQByG5ulTbUDhRQAFIAsgMz1SaqAqqAKqAKKAA5tg0oADn2/dert60CCkAKQLa1KK1NFVAFVAFVIEkUUABKElntplIFILu5VdpQO1BAAUgByA7MVJuoCqgCqoAqoADk2DagAOTY91+v3rYKKAApANnWorQ2VUAVUAVUgSRRQAEoSWS1m0oVgOzmVmlD7UABBSAHBCA7sEttoiqgCqgCqoAqoAqYKaAApOagCthOAQUgBSDbWZPWpAqoAqqAKqAKqAJJooACUJLIqpU6qAJOTk5wdXF10KuPuuw0tWo1fOTQCujFqwKqgCqgCqgCqkCKVkABKEXfHm2cnSmgAKQAZGcmq81VBVQBVUAVUAUcTwEFIMe753rFSaeAhsApACWddWnNqoAqoAqoAqqAKmATBRSAbCKjVqIKiAIKQApA+iioAqqAKqAKqAKqQApXQAEohd8gbZ5dKaAApABkVwarjVUFVAFVQBVQBRxRAQUgR7zres1JpYACkAJQUtmW1qsKqAKqgCqgCqgCNlJAAchGQmo1qoCGwIkNaBY4fRRUAVVAFVAFVAFVIEUroACUom+PNs7OFFAPkAKQnZmsNlcVUAVUAVVAFXA8BRSAHO+e6xUnnQIKQApASWddWrMqoAqoAqqAKqAK2ESB1AZA/A5LmjRp8PDhQ5voo5WoAglRQAFIASgh9qL7qgKqgCqgCqgCqkAyKPCsAETgGDpkIH7/YzqOHQtOhiuIfkq2hYPQgYOGJntbtAHWKVCpUgWEhFzD0aPJbz/WtTjuvRSAFICe1Yb0eFVAFVAFVAFVQBVIYgWeFYDSpUuH7777BlOm/I59+/YncWstV68AZFmjlLZH7Vqv4PKVq9i//z+LTcuQIT1eqV4Fq9dstLhvcuygAKQAlBx2p+dUBVQBVUAVUAVUgQQoYC0AZcrkjCxZskSrOTQ0DKGhociZMweuXLmK+/fvw9vbC7fDbiNDxowoXKggTp0+LbP71hQOHl98sTju3YvA0aPH8OjRI9NhRYoUBtt64cLFp6ry9fVFnjy5EBR0FL17dX/KA5Q+fXoUL1ZU6gy/d8+apug+z1EB2hZDFiMi7oOAA6TBgwcP4OPjhVu3whAeHm5qTYkSxeFXrjQWLlqGhw8jcefOHdM2sb3bd6Ltz42s09fXB/fu3ZNzsNB2Dftyd3eTsMlbt0JNdfEY/kab9vH2RsT9CNy4ccuiKgpACkAWjUR3UAVUAVVAFVAFVIHkVcBaAKpXrzaaNX3T1FgO9A4ePIxvRo3Bb1MnY9JPvyAwcAfGjxstAOPj4y37chC5Z88+jJ/wY7wX2rp1C9Su9arpmF279uD7HyahfHk/dOzYDmmdnGTb3bvhGDhoiAmq+vXrJXBjDGYjIiIExowQuPfea4Mar1Qz1bt23QZMm/Zn8oquZ4+mQLOmjXD+/EVsDdiBqlUqIleuHHB2ziggS/u5du06Fi5ajkKF8qPay5Xh5BS1xouwM3feYuTIkQ1169SUffnnwsVLWL58rZyjXLlSKFe2FO5FRCBjhgzyW3j4PTmO9bzZ5HU4OzuL/dBu581fIqDEdvj6esPVzRUZ0qfH2bPnrfI6KQApAOnjrQqoAqqAKqAKqAIpXAFrAcj8Mvwbv4HGjRtiyNAvcOrU6acAyN3dXbadO3ceH3/UFv/730v4+psxOHTocKxqlClTCt27dcHixcswb/5COGfMCHpt6K2Z/NP3OH36DMaO+14Grl9/NQIPHtxHj5798PLLVfDRh+9j+fKVmDN3AerUeQ0tWzTD2bPnBIBKlSqBnj0+xcxZc7BixWrUqf0aCFoDPvsc589fSOF3xnGaFxOAihUrjL37/pWQuCxZPNG4UX0sXrISV66ECMy8WKIYZsyYKwJxDdq77zTHyVNnsGnTNri6uqDpW29g+/bdOHgoCG3fb4V//j2I3bv3I2/e3Kj1WnXMX7BEvDmsl54e1k3PUPNmjXD9+k2sXLVeAIjtOHjwCAK377b6ZigAKQBZbSy6oyqgCqgCqoAqoAokjwIJBSCGu30xYghWrlwjYMES0wN08+YtDBo8TLZxjdDPk3/Ahg2b8PsfM2K9SEJMhQp++KRD12jbDTAaNnwkgoNPyLaaNV/Bu++0xocfdcCnXTuhZMkX5d9GmTRpAq4+9gB99FFbVK1SCTNmzDRtb9OmFebNW4jFS5Ylj+B61qcUiAlARYsWwtTf/jLt17rVWwgKOo5du/c9BUBZs/qg4et1BHjoHWSpVKk8Ll8JwcaNW/FOm+bYsnW7HJ8lsyeaNHndBFOEo1OnzuDkyTNyHM/r7eMlcEUAKly4AH7/Y1aC7pgCkAJQggxGd1YFVAFVQBVQBVSB569AQgFo3NjRYJhZ7z4DTI2NCUBnzpzFqNFjn0DJxPH4779DmPD9xFgvcNCg/sjs6YGevfpH2254mtp+0N70O8PdGPbWf8BgtG/3ITJn9kS37n1M27/8YigiIyPFA8R6CxbIH21tB3dctmwFVq5a8/zF1jPGqkBsIXCz5ywy7duiuT9OnDyNHTv2PAVAxYsXQZXKLz11jxlSF7BtJ95oWFe8SKfPnEPOHNnFdhn+xnVHrVq+KeFuDH0zCv9Nj5ARimfeDmtunwKQApA1dqL7qAKqgCqgCqgCqkAyKpAQAPrww/dQpUpl9OkzIFpig5gAFBZ2W8LMWLgm49cpk7Bw0WIsWrQk1itlvRVfqoD2n3SJtv2ll8qjU8f26Na9N27cuCnb6taphVatmovXp0uXDihVqiQ+/PCTJ7Bl5gH6oO27qFatKj76uKN+FygZbczSqWMCUM6c2TFn7t9xAhATIUyfEeV9ZKKERm/Uw5Klq3D58tWnTkVAeqlCOQQHn8Sp02dlLY9R3n+vFf777zB27tr71HEEoJjtsHQd3K4ApABkjZ3oPqqAKqAKqAKqgCqQjApYC0CG52XGnzOxevW6aC2OCUAeHh6YNOkX7N6zV7w0DG8bOHAozp47F+uVlipZAj17forNm7dKuJqbuxvc3dxw9tx5TPxxHC5evCRriJita/Cg/mCIXd9+A/G/ii+hQ4ePsWVLAGbNnoe6dWuh4ev1TWuAihYtggH9e0uyhj+mzcDVqyGoWrUyduzYaQqXSkbp9dSPFUgIABUuVADVq1cGPTNMgsDkBVwDROjevCVQ1gkxeQGzt3Gdj3/j+rJO6J9/DgoEM902j2NpUL8WvL2zYMvWHThx4hTc3FzFxi5cuCQeIAWgxJlomlq1Gj7J35i4OvQoVUAVUAVUAVVAFVAFkkwBawFo0MB+KFSoYLR2MAHC50NGyBqgiRN/xvYdOyULHLNXe3i4i/fnYWQk/v57SZzeH6PCN5s0xuuv15MZdJb1XDP0+3QQjjp3/gQZM2aU369fv4EvR47ClStX5P9dOndA+fLl5N8c4BJyGOZkrEGqU6cWmjd7U9YiGfv07NXP5FFKMmG1YqsVYNICI2SN4WwED4apGaV5s8Y4yRC4nXslaUHTtxpJljhCzrTpc+Dp6SEww7A2FkLRunWbcf7CRVkflCVLZkmrTRDin8NHjiEgYIfYGo+jF4m2ysLECYGBuySsjtnozD1R1lyQeoDUA2SNneg+qoAqoAqoAqqAKpCMClgLQNY2kQB07Hgwvv9+ErJm9RXvTUIKv+kTfvcuQsPCoh3mlSUL7oaH4+7du09VR7jx9vLCpcuX4zwVvxHzKPIRrl2/npDm6L4pVAE3V1dJbU0IMgozBzLV9e07UZ6hihX9QI8RvUUEIJYyZUqgXNnS+O33J0kWmA7b1dUVd+7cfeZQSQUgBaAU+shos1QBVUAVUAVUAVXAUCCpAGj8+Ke/+zPxx/Eycx+zmCc50DujCthKgUqVKqBI4SgAYnIDeo/q1X1NUmX/NXO+rU4TrR4FIAWgJDEsrVQVUAVUAVVAFVAFbKeArQGIWeKOBwcjNgCyXau1JlXAsgL0CDVuVE/CMSMjH8mHT0NDw7B6zQZZH5QURQFIASgp7ErrVAVUAVVAFVAFVAEbKmBrAGKo2v0HDxAaGmrDVmpVqkDiFaDnJ0OGDBLixhTpSVkUgBSAktK+tG5VQBVQBVQBVUAVsIECtgYgGzRJq1AF7FYBBSAFILs1Xm24KqAKqAKqgCrgKAooADnKndbrfB4KKAApAD0PO9NzqAKqgCqgCqgCqsAzKKAA9Azi6aGqQAwFFIAUgPShUAVUAVVAFVAFVIEUroACUAq/Qdo8u1JAAUgByK4MVhurCqgCqoAqoAo4ogIKQI541/Wak0oBBSAFoKSyLa1XFVAFVAFVQBVQBWykgAKQjYTUalQBAApACkD6IKgCqoAqoAqoAqpACldAASiF3yBtnl0poACkAGRXBquNVQVUAVVAFVAFHFEBBSBHvOt6zUmlgAKQAlBS2ZbWqwqoAqqAKqAKqAI2UkAByEZCajWqAAAnJye4urg6tBZpatVq+MihFdCLVwVUAVVAFVAFVIEUrYACUIq+Pdo4O1NAAUg9QHZmstpcVUAVUAVUAVXA8RRQAHK8e65XnHQKaAicAlDSWZfWrAqoAqqAKqAKqAI2UUAByCYyaiWqgCigAKQApI+CKqAKqAKqgCqgCqRwBRSAUvgN0ubZlQIKQApAdmWw2lhVQBVQBVQBVcARFVAAcsS7rtecVAooACkAJZVtab2qgCqgCqgCqoAqYCMFFIBsJKRWowpoCJzYgGaB00dBFVAFVAFVQBVQBVK0AgpAKfr2aOPsTAH1ACkA2ZnJanNVAVVAFVAFVAHHU0AByPHuuV5x0imgAKQAlHTWpTWrAqqAKqAKqAKqgE0UsBUApUmTRjJgPXjwwCbtSimV8JoePXqEyMjIlNIkbYeVCtAm06QBIiOf32c5FYAUgKw0T91NFVAFVAFVQBVQBZJLAVsBUKVKFfFJ+4/wftt2yXUpSXLe8eNG49ixYIyf8GOS1K+VJp0CVatURM6c2TFn7t9Jd5IYNSsAKQA9N2PTE6kCqoAqoAqoAqpA4hRIKQDk7uaGbt06Y/iIrxJ3ITY4KrY2KADZQNhkqkIBKHmE1yQIyaO7nlUVUAVUAVVAFVAFrFQgIQCUM2cOXLhwETlyZIevrw+Cgo7h7t27ciZzD1ChggWQIWMGHDly9KnQMc6Qv/hicZw8cQqhYWGmVjZt2gT16tbG4M+H4/79B7hy5YppW5EihcF28tyWCiEmjZMTwsPDUaxYEdy6FYpTp05HO4xtyJ8vLzK5ZMKBAwfjbYMBQFOn/oFChQvh1KlTuH79hqVm6PZ4FMiYMSOcnNLg7t1w0168J5kyOSMs7Lb85ubmKn+uXAnBw4cPTfvxN+7j4uICT093XL581bTd+O369Zty/w0Amjd/CXy8vRB+757Yg3lhOzw9PJAufTo5l1EyZEgPhtDdv38fPt7eiLgfgRs3blm8r+oBUg+QRSPRHVQBVUAVUAVUAVUgeRVICAD9NnUyzp+/AIIQC9fG/PnXLKxevc4EQDdv3oKHh7sMHjlw/fLLb3A8+ITs/+67b6Nmjeryb24/oBtYEgAAIABJREFUe/YcBg0ehtq1XkWrVs1Nx3CA+2m3Xihf3g8dO7ZDWicnOYYD5oGDhiAk5FqconXt0hFFixaRwbSTk5PUee3aNfTtN0gGs3ny5MawoYMQ+egRnB63ceTIUShUqGCsbSAAyaDWxcXU7v8OHsKoUd8l742z47P7lSuN0qVL4I9pM03rc6pUqYhCBfNj2vTZaNnCH5kyZRJ45j3ctm0nDh85Jlf8QdvWOHo0GEWKFBT7mzV7ESIjH8K/cQO4uPCYR7Lu5/c/ZqFypQooWDCf2ICTU1qBrtDQMCxYuEzWqtFO32zSkJZssr3Fi1fi+o2bAk++vt5wdXNFhvTpcfbseaxes9Gi6gpACkAWjUR3UAVUAVVAFVAFVIHkVSChAHT79m307NlPgKBPnx7wzeqL9u07o0IFP1kDdPjwEXz9zRi4u7vj29EjcezYcfm/X7my6Nq1I9asXY+ZM+cIRA0dMhCBgTvw0+QpAkdVq1RC+0+6iCDp06fH5J++x+nTZzB23PcID7+Hr78agQcP7qNHz37xApCfX1nMnDUHK1asxqs1X8E777TGho2b8fvv0+W4smXLYN++/QI248d9i6Cgoxg3/oen2sB9CUC8lmHDvsSJk6fQpk0r1HqtJjp0/NTk/UreO2h/Z6cH6O3Wb2HjxgAcDz4pF/BOm2Y4HnwKAQE7kDWrD65eDRGYqVnjZQGR2XMWmQCIHsJFfy83eXP8/RvAJZMz5s1finv37gkI3blzVyCmWLHC2LJ1O4KCjsPLKwv8G9ePdt7s2bPi4sXLAkfNm/kL6HB/49iDB48gcPtuq0VWAFIAstpYdEdVQBVQBVQBVUAVSB4FEgpAS5etwJw586Wx/6v4Ejp0+Fi8PF7eXgJA/QcMNoWq9evXS8KHevXuj3btPpD9P/yog+lCe/Xshty5c6Jb9z5PwUeZMqXQvVsXDBs+EsGPPUg1a76Cd99pLXXElZWNHqDSpUvio487ms4zbuxogZV+/QeZfmMY3/+1dx/QUVXr38cfQkkgISG0JIROABVChAhSvahA6IiigutawIIIIk1AVLyKgqJiwYLY7l/l2lBERAR5L4gKoYMC0kGBSw0dQuddzw5nnAwzmZJJJpP5nrVcSOacvff5nA1rfuxy6l11paSltZWiRcNMqHIMYVYA0ilvT/3rWXOtTsF6Y+Ir8vLLr8nva9YG5qEVglq7dmlvnuF3M+eIhpCOHdqYzQp0hEYPnYKWEB8nVaokmtGeD//9qS0ALVu2Sn77/e+pi/fc3Ut+XbjYjAzZHxpial4aVbJ+fkevW2Tjpi2iZViHPtOKFcpLgwZXmRGnr6fNNAEoKamGGUny5iAAEYC86S+ciwACCCCAAAIBEPA2AH300RT577ysqUA6Tentt16TSZPeEykil+0CN2TwQElMrCRDh42U0U8+JrGxsTJ4yHDbXd5z9z+lZcvmJqw4ho+bunWRbt06S+8+fW3nX1G3jmiosg9ZjmQagOrWrSP9BwyyfTRyxFBJSEgw0+p09Ob223uYL7oHMjIkJiZGTp44kWMA2rJlmxkhsg6dCvjKqxNl9erfA/DECkeVOt3tuuuaySdTpso/rmsmZcrEyNSvZphpaRqGIiIi5NixrPU6+jP7ADR37k/y145dl/pghPTqebPMnPmj7N3397ox/VBDTGJigm30SH92+203ybbtf8mSJSukZo1q0qJFE9MXdNpb6ahIM83SCkCO13oiTwAiAHnSTzgHAQQQQAABBAIo4G0Amjv3v/LJlM9Mi6+8sq6MGD7UjPAkJdXKMQD1f6ivGZmxprjp9RpMKlWqJAMfGWoCUMsWzeSBvgNM2Y0bp4peM2jwo3L48BHzs7R2bcw6HR0Bsl8Yb8+nAUhHj+xHml544VmzcH7MmHHy/vuTZPu27bbd5vSz4sWK2QKQfRu0XGe7wBGAct9hdV3O3XfdLsuXr5bU1BRZsnSl6HSzLp3TJDqmtEyZMtVUktooxYzM2AegOT/ON1PVrENHgHSd0IaNWeuErMPZLnD2Aeieu3vKrl27bWt7unZtL8WKFrUFIF+20CYAEYBy/6eDEhBAAAEEEEAgTwW8DUC6kYBOB9NA8dToxyQqKsqEGmfvAbIfAUpKqilPPD5S5s37Sab853NJSWkgA/r3ta3NscKNju7s3bvPrM/R0aU9e/ZeWlMUZUaRdJOFESOfcGmiAUjXAP3886/yfx9NMSNMOtL01dffyIwZ38v7770t6zdslAkTXpdWrVqYz3STBJ0C59gGnaJFAMq77te6dQupVrWyGYH56OMvTKjt3KmdREaWMqNBsbEx0j7tRilevFiOAUin0+ko0XczZ8uRI8ckLq6CWdfjLgBpAPvzz52y4OeFUrVqZbnh+lYmbFsjQAQg354922D75sZVCCCAAAIIIJBPAt4GoL379klcxYqmdWfOnJGXXnpVNm7abFsPZP8iVF3Do2t8hg57zJxvTWvTf/3XQzcf0A0S9Iuvbl/94otjzdQnDVn3P9BfkuvXkwEDHhRdNK+HrsUZO+7FbFtkOzJpAKpf/yqzQ5hep7/+8ccGGf/iBHOqtYmB/v/5Cxdk06bNUqF8eTNNz1kbdP2QnvPGm5NsVekI0IRXJspvvzEFLjfd1NqUQEdhZs+ZZ4pKSIiTtHY3mE0J9NDd3+rWqZVjANL1QjpyFBMTba7R4Prv//tMmjdrbF6EqmHKOm67tZts1ylwS1fK1Sn1pVGjBrZr/vprl8SUiZZp02aaa3UKnLcvUWUEiBGg3PyZ4FoEEEAAAQQQyAcBbwPQ5MkfyLLlK8y/uOtOXb4c8fFxsn//3+9vsS9DP9M2We+D0c/KxsZK5qlTHu26pgFIR5sGPjJMKlSoIIcOHTJbHtsfusNc+fLlzOiSBiTHw1kbfLlPrvFdQDcm0J3cXG124axk8y6hiAg5cfKk0+fq7BodfdJd4+z7m++tlqwt00tmbZkeqgcjQKH65LlvBBBAAAEEgkTAlwC0cFF6QO/OGklybIQGs6JhRW0BKKCNpPKQFCAAMQIUkh2fm0YAAQQQQCCYBIIxAOXk+/CAflK7di0zAsSBQH4LEIAIQPnd56gPAQQQQAABBLwU8CYA6btzMjIOmrU/BfXQBfT6kladYseBQH4LEIAIQPnd56gPAQQQQAABBLwU8CYAeVk0pyMQcgIEIAJQyHV6bhgBBBBAAIFgEyAABdsTo70FWYAARAAqyP2TtiGAAAIIIICAiNlx7aJcvhMaOAgg4L0AAYgA5H2v4QoEEEAAAQQQyFcBAlC+clNZIRcgABGACnkX5/YQQAABBBAIfgECUPA/Q+6g4AgQgAhABac30hIEEEAAAQQQcCpAAKJjIOA/AQIQAch/vYmSEEAAAQQQQCBPBAhAecJKoSEqQAAiAIVo1+e2EUAAAQQQCB4BAlDwPCtaWvAFCEAEoILfS2khAggggAACIS5AAArxDsDt+1UgLCxMIktF+rXMYCusSJs2ndlXMtieGu1FAAEEEEAghAQIQCH0sLnVPBcgADEClOedjAoQQAABBBBAIHcCBKDc+XE1AvYCTIEjAPEnAgEEEEAAAQQKuAABqIA/IJoXVAIEIAJQUHVYGosAAggggEAoChCAQvGpc895JUAAIgDlVd+iXAQQQAABBBDwkwAByE+QFIOAiBCACED8QUAAAQQQQACBAi5AACrgD4jmBZUAAYgAFFQdlsYigAACCCAQigIEoFB86txzXgkQgAhAedW3KBcBBBBAAAEE/CRAAPITJMUgwBQ40wd4DxB/FBBAAAEEEECgQAsUxgCk72IpUqSInD9/vkDb07jCJ8AIEAGo8PVq7ggBBBBAAIFCJlAYA9DT/3rCLEZ/4smnC9nTKli3k1SrhlSsWF4WLlpasBoWwNYQgAhAAex+VI0AAggggAACnggUxAD01OhRMv7FVyQzM9OTW7jsnNwGoKZNm0jt2kny8cf/8an+wnpRo4YNZO++/bJr125zi8n1r5RKiQkye/Z/8+2WK1euJOXLl5VVq9bkW53eVEQAIgB50184FwEEEEAAAQQCIOBLAKpVs4ZERkXJxg0b5dTp01KuXFk5cfyEFCteTOrWrSvbt2+XjIyD5m6io6MlMbGSrF+/QS5evJjtDitVSpD4uDhZs3adnDlzxnxWpUplGfPMaHlh/AQ5cuSI7NmzVy5cuOC2rAoVKkiVKomyceMmeXTYYI9GgEqWjJDq1auboLV9+5+2tlkB6q23J8vJkyfl8OEjAXgyBatK/WLfq+fNsnbtetm8ZZtkZp6SsLAixjnr/8MkIiJcTp7MlAoVysnZs2fl8OGj5ibCw8OldOlIOXAgq0/YH3pd+XJlJePgocumLOrzKVMmRo4cOWrK1aN92g2mrp9/SZczZ87K6dOnzc+joiLNf/v3Z2QrR392/PgJiY4uLRHh4bL/QIbph9rucmVj5UDGQVv/ssrR8/W6yMhScvDgITl79pzHD4MARADyuLNwIgIIIIAAAggERsCbAJSSkiwDB/aXomFh5kvk0aPH5JFBw+T1116Sffv2S61aNc1NTP/2O5k+/TsTZCpXTrQFn4kT35YVK1eZc9584xUpVaqU+fKpX2inTftWFqUvkXFjn5ZixYrZvsQOe/QxE0ByKmvkyGFyRd06tno0TO3ffyDHKXCdOraXHj26m3q0Pv3S+/DAITLokQGi96n3p21bu/YPmfDK64F5OAWo1h63dDEh4sKFi3Lx4gX55dfFEh9XUSpVipcvp34rOjLT5sbr5NSpUxIRUdKEI+0fe/bskzp1ahlPtZ75/VxbONYRpZSUeqK5WM9fsfI3M7ITHl5Cut/USTQAnTt3XooXLybpi5ebwFK7dk3bs9m67U/5+ed06Xn7TVKyZElbX1q0aKms37DZ6PXpfYcJOXqtHvpMV6z8Xa5JTbHpLl68XNb9sdF2/r59B8zUPj203QsWLJItW7d79DQIQAQgjzoKJyGAAAIIIIBA4AQ8DUD6xe69d9+Srdu2y/PPvyTnzp2TsmVjzZdZDUA60vPe+/+WX35ZeOmL5F3SqlULGfPs87J16zYZMXyIJCXVkvsf6G8+T06uJ+vWrTdfikcMH2pGiQY+MtRMPXt81HAZNPhR28hLn96uy2rZsrncd+89MmvWbPly6jRp1+5G6Xn7rbJz564cA5COWpUuXdqM/JSNjZUJE16Qye9+IAsXpsvz48aYQPTsc88H7sEUwJrvubunLFq0TDZszAoXLZo3yRaA2rVtLRs3bjHhKLZMjHTv3smM0sz4bracOHFSbu3RVXbs2GU+14DRuVM7E2A2bd4qtWpVl39c19yEqZo1qknDhsny0cdfmMBSqlRJMwqjo0pdOqdJ5qlTMnfuTzYhLevAgQwTzq5v3dKMQH3x5XRboNEg9vW0mSZo6yiWBqrZc+aZqXwa2rQf25+vo35fTp0hxYsXl7Zt/iHlysXa2uLusRCACEDu+gifI4AAAggggECABTwNQMn168nQoY/Iww8PkWPHj2drtQago8eOyRNP/L3pwMsvjZNixYrLjBkzzbnVqlU1gWjwkOFy6NBh87PSUVHSsNHV0qhhiqSkNJDeffo6DUA5lXXP3XdK/fpXyb339bO1adKkiXLAzQiQdfKVV9aVKlWqyK09usuyZSvkncnvE4Bc9ElPAtBnn39jpg3qcdedt8n2P3eYERQ9WrVsKnFxFWTqVzOk8TUNpV69K2TBgqzArEfr1i3k11+XmODbqVNb2bnzf7J06Uo5ZDcF0VkA0mtLlCguCfFxZhqkjhJ9+O9PbQEoPX2ZbYSnY4c2Eh0dJdpOPapWrWxC0AcfZq330hGjJUtWyJq1683vExMTJK3d9fLN9FlmOpy7gwBEAHLXR/gcAQQQQAABBAIs4GkA6tats9zUrYsJKY6HBiAd5Xn1tTdtH01+5w2zzkJHUuyPF8a/bH4+csQw8y/7us5Hp0DpWg9XASinsh64v4+5dtDg4bZqxj73tBk5yGkXuIf6PSCp1zSS8+fOmdGDhIR4Wbx4qUx65z0CkIs+6UkAsoKEFnHnP28z09p03ZAeTZteI1UqVzKjPDpapOHi2LHsYVqnwOkaI/2s6bWpEhMTbaawzZ49z6z3cQxAOi1PQ01ERIQcO3bM1KM/sw9Ac36cb8KUHrqGSI8fLm3coFP49Gf2AWjevF9k2/a/zHk6WqT3MWfOPNl5afOHnP7IEoAIQAH+K53qEUAAAQQQQMCdgKcBSEdZhg0dlG0ExypbA9DmLVvl9dffslX34vjnzJSjocMeu6wJOsUsNraMPNhvoFlj0bv3XXJdqxbZAtCQISPk4KGsf3HPqaxBgwZIcnJ9uffeB231uBsBqlM7SUaNGi5fff2NzJjxvQlkkye/KUuXLLMFoBMnT8qYMePc8YXU5xqAdDTFWl/jbAqcpwEoNTVFkutfJR99/JmZuubq0OlnHTu0lR07d8n8+b+aAKRBSEONHvr76JjSMmXKVPP71EYp0qDBVbkKQMtXrJbVq9ea8nTHua5d2stnn0+zbcRAAMq52/Mi1JD6a4GbRQABBBBAIPgEPA1AVkjYu2evvPTSq5J5KtNserBmzTqzBsgxAOk6nPbt28oPP/xoNkUoVrSoGXGZP3+B6AiNrhkaMnSEKWPwoAFmvYWOAOm0uIkTJ8jXX0+XGd99b0Bvv62Hy7KubdJY+vW736w9+vyLryQtrY107tQhxzVANWvWkNFPPiaffPKpLEpfLHf+8w7Rra/T05eYADRyxFCpXr2aDBr0qJw5ezbbLmHB94T91+I7et1iNpf4ce5P5kWzzZs1vmwNkKcBSINNt64dRDcyWLZ0lZzMzJSqVRLNKEtsbIycP3/BTDkrUaKE3Ny9k+zZu88EoBuubynx8XHy+RffmOfSqWNbs1ubTqvT69qn3WhGbXIzAqRrjXTKm26moaNLpSJL2QKWO01GgBgBctdH+BwBBBBAAAEEAizgaQDSZup6Gd0lTbc11kO3qB752JPy2qsvyRYdAZr49wiQfv7wgH7SqNHV5suyHhkZGWZEKDW1kQzo39f28+XLV5rzrOl1ug21rhnS0aGnnxlrNipwVZZVT2pqQ1OHbqqgU9r0y+uTo59xqfvsmKfMDnV66JoVXdek9zB58gei652GDBlo2rdjx84cywnw48vX6vW9P40bNzTPZfny1WaraJ1CpuHDWiuTPQDdKstX/Cbr1m0w7dQpcJUTE8z5eujGB82bNTGBxXp2ujanZo2q0qxZY1OPPgPdWe77WXPNttoVK5SXjh3bml3jdu/Za3aNS2unW2Nn9TEdnapbp1a2AGRteKCfp12aAme9uyghIU46tL8x2xQ4nXKnW3ProZs4aN2erP/R8wlABKB8/UNJZQgggAACCCDgvYA3AcgqXUdvdNG5Bg1PDl1fo+sz7NcD6Rdb/Zd8LUP/xd3x0HU9YUXCbNPgrM+dlaWf6VbW5cqWlb379nnSJHOOjjaVCC9h25bZ/kKdvqft0xEPZ+3zuJJCdqI66/t+HNd25eY2dbtrXQemQcc61F/XiJ0+feYyf+07Gr50ZznrHVH6e31XkPV7X9ujmyDo9Lrdu/ea7bit9w95Wh4BiADkaV/hPAQQQAABBBAIkIAvAShATfW6Wl3nUzup1mXXvfvuh7JwUbrX5XFB4RewApC1aYK3d0wAIgB522c4HwEEEEAAAQTyWaAwB6B8pqS6QiBAAMr9Q2QThNwbUgICCCCAAAII5KEAASgPcSk66AR0Kl1m5imzlsyXgxEgRoB86TdcgwACCCCAAAL5KEAAykdsqir0AgQgAlCh7+TcIAIIIIAAAsEuQAAK9idI+wuSAAGIAFSQ+iNtQQABBBBAAAEnAgQgugUC/hMgABGA/NebKAkBBBBAAAEE8kSAAJQnrBQaogIEIAJQiHZ9bhsBBBBAAIHgESAABc+zoqUFX4AARAAq+L2UFiKAAAIIIBDiAgSgEO8A3L5fBQhABCC/digKQwABBBBAAAH/CxCA/G9KiaErQAAiAIVu7+fOEUAAAQQQCBIBAlCQPCiaGRQCBCACUFB0VBqJAAIIIIBAKAsQgEL56XPv/hYICwuTyFKR/i42qMor0qZN54tB1WIaiwACCCCAAAIhJUAACqnHzc3msQABiBGgPO5iFI8AAggggAACuRUgAOVWkOsR+FuAKXAEIP48IIAAAggggEABFyAAFfAHRPOCSoAARAAKqg5LYxFAAAEEEAhFAQJQKD517jmvBAhABKC86luUiwACCCCAAAJ+EiAA+QmSYhAQEQIQAYg/CAgggAACCCBQwAUIQAX8AdG8oBIgABGAgqrD0lgEEEAAAQRCUYAAFIpPnXvOKwECEAEor/oW5SKAAAIIIICAnwQIQH6CpBgEmAJn+gDvAeKPAgIIIIAAAggUaIFABiB9Z0qRIkXk/PnzeW6Un3Xl+c1QQYEVYASIAFRgOycNQwABBBBAAIEsgUAGoKf/9YRZNP7Ek0/n+ePIz7ry/GYKSAVJtWpIxYrlZeGipQWkRYFvBgGIABT4XkgLEEAAAQQQQCBHgWAJQE+NHiXjX3xFMjMzfXqiuQ1ATZs2kdq1k+Tjj//jU/2F4aJGDRvI3n37Zdeu3eZ2kutfKZUSE2T27P/m2+1VrlxJypcvK6tWrcm3Or2piABEAPKmv3AuAggggAACCARAwNMApFPVEhLiZffuPXLx4kXT0pIlIyQqqrTs379fihcvLmXKxMj+/QekTu0kKVqsqGzcuPmy6W0VKlSQKlUSZePGTfLosMGXjQBVqpQg8XFxsmbtOjlz5oypp0qVyjLmmdHywvgJcuTIEdmzZ69cuHDBfBYdHS2JiZVk/foNtnZZjO7qcsat91S9enUTtLZv/9N2ihWg3np7spw8eVIOHz4SgKcVuCr1i32vnjfL2rXrZfOWbZKZeUrCwoqY55f1/2ESEREuJ09mSoUK5eTs2bNy+PBR0+Dw8HApXTpSDhw4eNkN6HXly5WVjIOHLusr+iy0Tx05ctSUq0f7tBtMXT//ki5nzpyV06dPm59HRUWa//bvz8hWjv7s+PETEh1dWiLCw2X/gQzTT7Td5crGyoGMg7a+ZJWj5+t1kZGl5ODBQ3L27DmP4QlABCCPOwsnIoAAAggggEBgBDwNQKWjomTixAnywviX5Y8/NpjGduvWWbp26ST33tdPdITk/vv7yInjx6V06dJmbY9+CR47drxsuxQkRo4cJlfUrWMLKhpwNDBZU+DefOMVKVWqlPlCql9yp037VhalL5FxY5+WYsWK2b7YDnv0MRNANBRVrpxoK2/ixLdlxcpVpm3u6nKm3alje+nRo7upR+vTL8IPDxwigx4ZICkpyaYebdvatX/IhFdeD8wDC1CtPW7pYkLEhQsX5eLFC/LLr4slPq6iVKoUL19O/VZ0ZKbNjdfJqVOnJCKipAlHR48ekz179kmdOrWMnbrO/H6uZGRkBSEdUUpJqSeap/X8FSt/MyM74eElpPtNnUzAPnfuvBQvXkzSFy83gaV27Zq257B125/y88/p0vP2m6RkyZK2frNo0VJZv2GzqaNP7ztMyNFr9dDnt2Ll73JNaopNcvHi5bLuj4228/ftO2Cm9umh7V6wYJFs2brdI3kCEAHIo47CSQgggAACCCAQOAHvA9AE+eOP9U4D0IN97zPhaPyLE8x0saFDBpqgMmLkE9KyZXO57957ZNas2fLl1GnSrt2N0vP2W2Xnzl22AJScXE/WrVtvviiPGD7UjOwMfGSoKevxUcNl0OBHbSMvfXrfJa1atZAxzz4vW7dukxHDh0hSUi25/4H+HtXlTLxcubImvOnIT9nYWJkw4QWZ/O4HsnBhujw/bowJRM8+93zgHlaAa77n7p6yaNEy2bAxK1y0aN4kWwBq17a1bNy4xYSj2DIx0r17JzNKM+O72XLixEm5tUdX2bFjl/lcA0bnTu1MgNm0eavUqlVd/nFdcxOmataoJg0bJstHH39hAkupUiXNKIwG6i6d0yTz1CmZO/cnm4aWdeBAhgln17duaUagvvhyui3QaBD7etpME6p1FEsD1ew588xUPg1tZcvGZjtfR/i+nDrDjGq2bfMPKVcu1tYWd4+AAEQActdH+BwBBBBAAAEEAizg7wA06vGn5H//y1ojMqD/g9Kw0dVy770PyuBBD0v9+leZ0SLrmDRpohywGwHSn+tIk17TqGGKpKQ0kN59+joNQC+/NE6KFSsuM2bMNMVVq1bVBKLBQ4bLPXff6VFdruivvLKuVKlSRW7t0V2WLVsh70x+nwAkIp4EoM8+/8ZMEdTjrjtvk+1/7jAjKHq0atlU4uIqyNSvZkjjaxpKvXpXyIIFC22PoXXrFvLrr0tMyO3Uqa3s3Pk/Wbp0pRyym27oLABpASVKFJeE+DgzvVJHiT7896e2AJSevsw2wtOxQxuJjo4SbaceVatWNiHogw+z1nbpiNGSJStkzdqskJ+YmCBp7a6Xb6bPMtPh3B0EIAKQuz7C5wgggAACCCAQYIHcBKCbb+4mOm3MmgKnI0D33f+QnDuXtWYirV0b6dXrNrmn9wPyr6ceN+s5Bg0ebrvjsc89bf6FX6fA6TqfkSOGmX/t13U+Oi1Kz3cVgCa/84ZZx6GjMvaHTtF74P4+Odblivyhfg9I6jWN5Py5c2ZEQdc8LV68VCa98x4ByMMAZAUJNb7zn7eZaW26bkiPpk2vkSqVK5lRHh0t0nBx7NjxbI9Dp8DpGiP9rOm1qRITE22msM2ePc+s93EMQDotT0NNRESEHDt2zJSlP7MPQHN+nG/ClB66hkiPHy5t3KBT+PRn9gFo3rxfZNv2v8x5Olqk9zFnzjzZeWnzh5z+yBKACEAB/iud6hFAAAEEEEDAnYCnAUjXWLz91msyadJ7kr54iSm2f/++0qjh1dkC0DNjxpkpaXrTgpFvAAARTElEQVT07n2XNGvaRB7oO0AGDRogycn1zWiQddiPAOkUs9jYMvJgv4Fm3YVee12rFtkC0JAhI+Tgoax/hX9x/HNmStPQYY9ddovu6nJmohs3jBo1XL76+huZMeN7E64mT35Tli5ZZgtAJ06elDFjxrkjLbSf6wiQjqZY62ucTYHzNAClpqZIcv2r5KOPPzNT11wdOv2sY4e2smPnLpk//1cTgDQIaajRQ38fHVNapkyZan6f2ihFGjS4KlcBaPmK1bJ69VpTnu4417VLe/ns82m2jRgIQDl3cV6EWmj/CuDGEEAAAQQQKBwCngYgvdv333vbrNl5/oWXpVJCvAkMetiPAOkucWPHvWjWVYx+8jGznkbX6VzbpLH063e//PLLQvn8i68kLa2NdO7UwbYGSEeDdEe3IUNHSK1aNWXwoAFmDYaOAFkbMHz99XSZ8d33ps7bb+sh7du3lR9++FGmf/udFCta1IzezJ+/wG1dzp5czZo1THs/+eRTWZS+WO785x1mY4f09CUmAI0cMVSqV68mgwY9KmfOns22c1jh6Anu7+KOXreYTSt+nPuT2eSiebPGl60B8jQAabDp1rWD6EYGy5aukpOZmVK1SqIZZYmNjZHz5y+YKWclSpSQm7t3kj1795kAdMP1LSU+Pk4+/+Ib8ww6dWxrdmvTaXV6Xfu0G82oTW5GgHStkU550006dHSpVGQpW8Byp8QIECNA7voInyOAAAIIIIBAgAW8CUC641v37l3Nl18dpdGRHg0F9gFo7759ElexormrQ4cOy6jHR5ttkvV4eEA/SU1taP5fNzrQaWb6JfPJ0c9IamojGdC/rylbj+XLV0qjRlebAKSHbkOt63y03qefGWuClZan51jXZGRk2EaEcqrLFfmzY54yu8rpoetYjh0/Llu2bJXJkz+Q5Pr1ZMiQgaauHTt2mjaH2qHv/WncuKF5BsuXrzZbResUMg0f1lqZ7AHoVlm+4jdZty5r10CdAlc5McGcr4dufNC8WRMTWKw+oWtzataoKs2aNTb1qLfuLPf9rLlmW+2KFcpLx45tza5xu/fsNbvGpbXTrbGz+o2OTtWtUytbALI2PNDP0y5NgbPeXZSQECcd2t+YbQqcTrnTrbn10E0ctG5P1v/o+QQgAlCo/b3A/SKAAAIIIBB0At4EIL05/UKq/wKvIwHWWp+sL7dNRNcA6Xof3UlNF/FogHA8dHvpcmXLigYlx8MqW4OR/iu846FrgsKKhNmmwVmf61odXf/huB4op7pcPSgdbSoRXsK2VbP9eTrlzrp3Z+0LuofvQ4PVVN/342jtQ1G2S3S7a13zpUHHOtRa14OdPn3msr6g/UTDl+4sZ70PSn+v7wqyfu9re3QTBJ1et3v3XrMdt/X+IU/LIwARgDztK5yHAAIIIIAAAgES8DYAuWqmfQAK0K14VK1O26udVOuyc99990NZuCjdozI4qfAKWAHI2jTB2zslABGAvO0znI8AAggggAAC+SzgtwB0bRN58MGsESAOBIJVgACU+yfHJgi5N6QEBBBAAAEEEMhDAX8FIP2X74T4eNm5a1cetpaiEchbAZ1Kp2vWdI2aLwcjQIwA+dJvuAYBBBBAAAEE8lHAXwEoH5tMVQgUWAECEAGowHZOGoYAAggggAACWQIEIHoCAv4TIAARgPzXmygJAQQQQAABBPJEgACUJ6wUGqICBCACUIh2fW4bAQQQQACB4BEgAAXPs6KlBV+AAEQAKvi9lBYigAACCCAQ4gIEoBDvANy+XwUIQAQgv3YoCkMAAQQQQAAB/wsQgPxvSomhK0AAIgCFbu/nzhFAAAEEEAgSAQJQkDwomhkUAgQgAlBQdFQaiQACCCCAQCgLEIBC+elz7/4WIAARgPzdpygPAQQQQAABBPwsQADyMyjFhbRAWFiYRJaKDGmDIm3adL4Y0gLcPAIIIIAAAggggAACCISMAAEoZB41N4oAAggggAACCPhXIDO8hkcFRkRGeXSenlTk4O8en8uJCPgiQADyRY1rEEAAAQQQQACBEBU4GH2DZIZXF0/DjzLVTL7aKy0TgjZ9ShjySo2TPRUgAHkqxXkIIIAAAggggECIC2j4ORh9vdcK3gYgq4Iimz+VIpv+43V9XIBATgIEIPoHAggggAACCCCAgFsBHfHZVaGP2/OcneBrANKyCEE+kXNRDgIEILoHAggggAACCCCAgFuBzZXHuD3H1Qm5CUBaZtisLj7XzYUIOAoQgOgTCCCAAAIIIIAAAjkK5Gb0Rwt2DEApVUSurnx5lf+3yHkziiwexXog+qjfBAhAfqOkIAQQQAABBBBAoHAK+DsA/b8hzp2GfCmyesflnzENrnD2q0DdFQEoUPLUiwACCCCAAAIIBImAr5sfWLdnPwKkoz8TbnV+4x8tEnE2CkQACpKOEiTNJAAFyYOimQgggAACCCCAQKAEClMAsrbxTtz/geHU0S3d2a7s0XlS8vS2XBNb5furvFw3iAIuEyAA0SkQQAABBBBAAAEEchTwZwC6pZHIQ60DNwKkO9lp6Ena+aQtAOnPNLCUPfrfXPcEy8q+PP2ZHv4oP9cNLAAFXLx2rMjBNQHb4pwAVAA6AU1AAAEEEEAAAQQKsoC/AtDdzUTuaub6TvNjClwgApC1g56OOvljlKkg9xV3bbtY+w65mNTLnBao3f0IQO6eEp8jgAACCCCAAAIhLuCPAGSFn837RZIqhN4IUGZ4dbGm3YVyd7pYNlmkXLIhCNRLbglAodwDuXcEEEAAAQQQQMADgdwEoEE3xcsj3eJNLdYIj7NtsFftdL4DnPmivPlTv31ZDsQIkAfEnJKPAgSgfMSmKgQQQAABBBBAIBgFXAWgT0ckXXY7izccl1e/2WN+7iz8+HL/uQlAut7HftqZJwFIr9HDk+lqjuc6WwPk7p69rc+Tdll15lS2P+p19HV3r558bkaJNPge/N2T070+hwDkNRkXIIAAAggggAACoSXgLADZhxtHjV4vbJamV0SZkZ/Xpu+Rb7dkjQD5evgSgKygY1+nbkygU9FcbYKg5+qOcI7XONu8wNm7kbR8qwz7TRAcQ5eeY+0+Z4UQq05nmzE4O1dDkE6p0/VF1v9n1X2DuQf9TH+1yrff9MH+567q1TbrUfL09mwmVl3O2uTpGqcLHWaYcKMvuLU/7NcHWT/35dm762cEIHdCfI4AAggggAACCIS4gLcByOLS8KOjQfbvAfKF0tsvwVbg0C/r+gXeOuzDjeMucNY59tdY5zuGEnsPx/P19xoO3AUg++2y7QOR/r9jkLA2UbCvywpyWSElKwzZByCrHdY1Voizgo0V1qwg41ivdZ41wmM5qolj2Vbo018t15yes7MAZIUfM+pzcI3tct0wwVlY8qUf2UJVmzadL+amAK5FAAEEEEAAAQQQKNwCvgQgK/yoTPnSx3IFFHF4lUTsnuNRGTlNQbO/D2cByNnoi7Md3Fzt6mY/KuQuADm7Get6xy20rfcUOY5E2Qc9xwDkaRixwpfjVuBW2Y4m7n7uySiQYwCyhR8na71y+syjDuHkJEaAfJXjOgQQQAABBBBAIEQEfAlA6euPm+lv+muJ2OhcScXs+0Fi9s7yqAxn083sL7TCi6fvAbLKs77Yu1vj4ywg5NQma4qa9atj2HFsr/29WIHJ2QiQu/ca2ddrjSY5C22OgcZVAHIW3lw9MJcBaPEop+t+XE2Z86hDEIB8ZeI6BBBAAAEEEEAgdAW8DUC6EcK1daMMmIagt346mSs8bwJQToFBG+HJJgjOQoYVDtwFIGefOwtA1hQ4xzVAWrdVl7OA4wiZ0xogZ5slONZrTWezr9eZk1Wv/Roj+/JzE4A04Ojh6r1A+uJU3RjBX+8NYgQoV38cuRgBBBBAAAEEECj8As4CkG5y4GwXOB3xsd8EQc97Y/YhmTj7kM9Q3gQgX0eA7EdR7BvqGGjcfdH3JADZBxsNO/ZBQgON/UiMY8BxFs5cbYLgGICstunP3dXryjEvApAVcHRTBGc7v7kLSN52LAKQt2KcjwACCCCAAAIIhJhAbt4DpCFJQ9CSzZly51u7fZLzJQA5mwLmbg2QswX8jl/43Y3KWCNQOa0BcjWKlFN4cra2xj7QOK4Byul8V5s6eLJuKU8CUO07xGx2wBogn/58cBECCCCAAAIIIICAnwVyE4C0KUN7VpMBabGmVRqCHm5X5rIWLtlyShZvOWWCkuPhTQBytRGB47bVzjZBsN8xzX6b55w2Asi6JmvnN/vtpXMKE85ClKv6HO/HGtWxr8uXESArMLmq1x8jQK42MHC6C9ylaW4agiTj7/f/6OiQHq5Gh3zp6owA+aLGNQgggAACCCCAQAgJ5DYA6SYITZJKyscPJeSo5mqqnDcBSCtw1V537wGy31raaqiz6WKu6rDCiSfbYNu/p8h+62xrm2kroOR0P3qOluNpAHIMgY71+nsEyDa1zeGdP04DkL78tHYvs9bH8fBn+DFhim2wQ+hvL24VAQQQQAABBBDwQcAfAUir1RA0qls5uTKxhNNW+CsAWYVru+2DjH7ht35mbSmtoeDvd938/bleZ43uuCKzytLgZK2pcSzPCjD6q+M21q7a56pe63wraOmvjmuGrPqdvbzVnYt9vY5O1rWuynd233qNjgLpiI792h5nP7PKN58ZrPoimz51uibIhy6c7RICUG4FuR4BBBBAAAEEECjkAv4KQFYIcjUS5O8AVMgfi22ky92W14Xdwdv7IwB5K8b5CCCAAAIIIIBAiAkQgAL3wF2NxGiLXL2TJ3CtDY6aCUDB8ZxoJQIIIIAAAgggEDABAlDA6G0hR1tgbdJgv1aJ0R/vnw0ByHszrkAAAQQQQAABBEJKwJ8BSOE2TKjp1M/VFLiKWydKxInNIWVuf7PO/F1tzhCySF7cOAHICyxORQABBBBAAAEEQlXAer+NL/evu8Dl5gj1AGRvZ23YkBvPUL+WABTqPYD7RwABBBBAAAEEPBDIzShQbgKQjvxoAOJAwF8CBCB/SVIOAggggAACCCBQyAV8HQXKTQCq+vsjhVyV28tvAQJQfotTHwIIIIAAAgggEKQCOv1KX9Spv3pz+BKAvH35qTft4dzQFiAAhfbz5+4RQAABBBBAAAGvBayXXupuZJ4cxUtHenKaOSf80mYHMXtneXwNJyLgjQAByBstzkUAAQQQQAABBBBAAIGgFiAABfXjo/EIIIAAAggggAACCCDgjQAByBstzkUAAQQQQAABBBBAAIGgFiAABfXjo/EIIIAAAggggAACCCDgjQAByBstzkUAAQQQQAABBBBAAIGgFiAABfXjo/EIIIAAAggggAACCCDgjQAByBstzkUAAQQQQAABBBBAAIGgFiAABfXjo/EIIIAAAggggAACCCDgjQAByBstzkUAAQQQQAABBBBAAIGgFiAABfXjo/EIIIAAAggggAACCCDgjQAByBstzkUAAQQQQAABBBBAAIGgFiAABfXjo/EIIIAAAggggAACCCDgjQAByBstzkUAAQQQQAABBBBAAIGgFiAABfXjo/EIIIAAAggggAACCCDgjQAByBstzkUAAQQQQAABBBBAAIGgFiAABfXjo/EIIIAAAggggAACCCDgjQAByBstzkUAAQQQQAABBBBAAIGgFiAABfXjo/EIIIAAAggggAACCCDgjQAByBstzkUAAQQQQAABBBBAAIGgFiAABfXjo/EIIIAAAggggAACCCDgjQAByBstzkUAAQQQQAABBBBAAIGgFiAABfXjo/EIIIAAAggggAACCCDgjQAByBstzkUAAQQQQAABBBBAAIGgFiAABfXjo/EIIIAAAggggAACCCDgjQAByBstzkUAAQQQQAABBBBAAIGgFiAABfXjo/EIIIAAAggggAACCCDgjcD/ByYSdAnFVoD5AAAAAElFTkSuQmCC;" vertex="1" parent="1">
          <mxGeometry x="730" y="474.5" width="108.25" height="70" as="geometry" />
        </mxCell>
        <mxCell id="8PqoIUjrqFFSACYSVB_w-48" style="edgeStyle=orthogonalEdgeStyle;rounded=0;orthogonalLoop=1;jettySize=auto;html=1;entryX=0.004;entryY=0.417;entryDx=0;entryDy=0;entryPerimeter=0;" edge="1" parent="1" source="ZlNRgsK83NWHivk_8-HD-4" target="8PqoIUjrqFFSACYSVB_w-1">
          <mxGeometry relative="1" as="geometry">
            <Array as="points">
              <mxPoint x="-260" y="450" />
              <mxPoint x="-260" y="142" />
            </Array>
          </mxGeometry>
        </mxCell>
      </root>
    </mxGraphModel>
  </diagram>
</mxfile>
